/* XPM */
static char *e9969fc78f3c416af8d102d87952af79GVtKhZc8s0HxHN0V[] = {
/* columns rows colors chars-per-pixel */
"64 64 117 2 ",
"   c None",
".  c #4F605F",
"X  c #51605E",
"o  c #5A665A",
"O  c #6F714F",
"+  c #7F7A47",
"@  c #74744C",
"#  c #78764A",
"$  c #7E7A48",
"%  c #636B55",
"&  c #6A6E52",
"*  c #6E7150",
"=  c #455A64",
"-  c #4A5D63",
";  c #4E626B",
":  c #51656E",
">  c #566972",
",  c #64767F",
"<  c #827C46",
"1  c #8F833F",
"2  c #9F8C37",
"3  c #94863C",
"4  c #97883B",
"5  c #99893A",
"6  c #BE9D27",
"7  c #B2972D",
"8  c #BB9B29",
"9  c #A38E35",
"0  c #AD9330",
"q  c #CEA61F",
"w  c #DEAF17",
"e  c #D0A71F",
"r  c #D9AC1A",
"t  c #EEB80F",
"y  c #F2BA0D",
"u  c #FABE09",
"i  c #E4B214",
"p  c #E9B512",
"a  c #F1BE17",
"s  c #C09E27",
"d  c #C5A124",
"f  c #CBA421",
"g  c #DDBB2C",
"h  c #CCB73E",
"j  c #D6B932",
"k  c #D1B838",
"l  c #E1BB27",
"z  c #FFC107",
"x  c #FDC10A",
"c  c #8C8240",
"v  c #BEB44D",
"b  c #ADB15E",
"n  c #9DAE6F",
"m  c #97AD76",
"M  c #9DAE70",
"N  c #91AC7C",
"B  c #A4AF67",
"V  c #A3AF6A",
"C  c #A5B066",
"Z  c #AAB163",
"A  c #3D6E8E",
"S  c #3A6D91",
"D  c #3476A6",
"F  c #3577A8",
"G  c #667780",
"H  c #6F7F87",
"J  c #607D8B",
"K  c #1976D2",
"L  c #1A7AD6",
"P  c #1B7EDA",
"I  c #72828A",
"U  c #748D99",
"Y  c #7C949F",
"T  c #7FA88F",
"R  c #77A797",
"E  c #78A796",
"W  c #7EA891",
"Q  c #4B94B8",
"!  c #5098B5",
"~  c #529FBF",
"^  c #53A0BD",
"/  c #6CA5A3",
"(  c #65A2A9",
")  c #1C82DE",
"_  c #2C83C5",
"`  c #379ADD",
"'  c #1D86E3",
"]  c #1E89E6",
"[  c #1E8DEA",
"{  c #2D99E6",
"}  c #2394EE",
"|  c #2B98E9",
" . c #3299E1",
".. c #2196F3",
"X. c #808F96",
"o. c #85949B",
"O. c #80A88E",
"+. c #929EA5",
"@. c #97A3A9",
"#. c #9AA6AC",
"$. c #93A7B0",
"%. c #A1ACB1",
"&. c #A9B3B9",
"*. c #ACBBC3",
"=. c #B4BDC2",
"-. c #B9C1C6",
";. c #B4C1C8",
":. c #BDC5C9",
">. c #C7D1D6",
",. c #CBD2D5",
"<. c #CFD8DC",
"1. c #D6DCDF",
"2. c #D9DEE1",
"3. c #E2E6E9",
"4. c #E6EAED",
"5. c #E9ECEE",
"6. c #ECEFF1",
/* pixels */
"                                            = = = = = = =             = = = = = = =                                             ",
"                                        = = = = = = o 4 q t x z z x t e 4 o = = = = = =                                         ",
"                                    = = = = = = # r z z z z z z z z z z z z r # = = = = = =                                     ",
"                                  = = = = =   x z z z z z z z z z z z z z z z z u   = = = = =                                   ",
"                                = = = =     x z z z z z z z z z z z z z z z z z z z     = = = =                                 ",
"                                = =       z z z z z z z z z z z z z z z z z z z z z z       = =                                 ",
"                                        z z z z z z z z z i 6 5 4 6 i z z z z z z z z z                                         ",
"                                      z z z z z z z y 1 . = = = = = = X 1 y z z z z z z z                                       ",
"                                    z z z z z z x f o = = = = = = = = = = o d z z z z z z z                                     ",
"                                    z z z z z x 3 = = = > o.&.,.,.&.o.> = = = c z z z z z z                                     ",
"                                  z z z z z z 8 = = = o.3.6.6.6.6.6.6.3.o.= = = 7 z z z z z z                                   ",
"                                  z z z z z p . = = =.6.6.6.6.6.6.6.6.6.6.:.= = ; p z z z z z                                   ",
"                                z z z z z u @ = = @.6.6.6.6.6.6.6.6.6.6.6.6.#.= = @ x z z z z z                                 ",
"                                z z z z z r = = G 6.6.6.6.6.6.6.6.6.6.6.6.6.5.G = = r z z z z z                                 ",
"                                z z z z z 7 = = =.6.6.6.6.6.6.1.1.6.6.6.6.6.6.=.= = 7 z z z z z                                 ",
"                                z z z z z 1 = = 1.6.6.6.6.4.Y J J Y 4.6.6.6.6.1.= = 1 z z z z z                                 ",
"                                u f 2 + & = = ; 6.6.6.6.6.=.J J J J ;.6.6.6.6.6.; = = & $ 5 f u                                 ",
"                              % - = = = = = = ; 6.6.6.6.6.$.J J J J $.6.6.6.6.6.: = = = = = = - %                               ",
"                            = = = = = = = - = = 4.6.6.6.6.>.J J J J ,.6.6.6.6.6.- = - = = = = = = =                             ",
"                              = o + 9 f y 5 = = ,.6.6.6.6.6.*.U U *.6.6.6.6.6.>.= = 5 y f 9 + o -                               ",
"                                z z z z z s = = %.6.6.6.6.6.6.6.6.6.6.6.6.6.6.%.= = 6 x z z z z                                 ",
"                                z z z z z p - = ; 2.6.6.6.6.6.6.6.6.6.6.6.6.2.; = = p z z z z z                                 ",
"                                z z z z z z 2 = = H 5.6.6.6.6.6.6.6.6.6.6.6.I = = 2 z z z z z z                                 ",
"                                z z z z z z u & = - U 3.6.6.6.6.6.6.6.6.3.o.= = & x z z z z z z                                 ",
"                                z z z z z z z w - = = > -.6.6.6.6.6.6.:.> = = - r z z z z z z z                                 ",
"                                z z z z z z z z q o = = = ; H +.+.I ; = = = o f z z z z z z z z                                 ",
"                                z z z z z z z z z y 1 = = = = = = = = = = c y z z z z z z z z z                                 ",
"                                z z z z z z z z z z z f 3 & = = = = & 1 f z z z z z z z z z z z                                 ",
"                                z z z z z z z z z z z z z z u r r u z z z z z z z z z z z z z z                                 ",
"                                z z z z z z z z z z z z z z z z z z z z z z z z z z z z z z z z                                 ",
"                                z z z z z z z z z z z z z z z z z z z z z z z z z z z z z z z z                                 ",
"                                z z z z z z z z c O 8 z z z z z z z z z z 6 & < z z z z z z z z                                 ",
"                                z z z z z z z t = = = O r z z z z z z r @ = = = p z z z z z x x                                 ",
"                              O.v a z x z z z z 3 = = = = % 4 d d 3 & = = = = 3 z z z z z z x v W                               ",
"                            ......| M x z z z z z r O = = = = = = = = = = O r x z z z z z n { ......                            ",
"                          ............~ g z z z z z z 6 # - = = = = - # 8 z z z z z z g ^ ............                          ",
"                          ..............} W l z z z z z z u r 0 0 r u z z z z z z l W } ..............                          ",
"                          ..................../ h x z z z z z z z z z z z z x h / ..................|                           ",
"                           ....................... ./ Z g u z u z z x g b / ` ......................{                           ",
"                          N ................................` ~ ~ ` ................................O.                          ",
"                          x / ..................................................................../ x                           ",
"                          x z T ................................................................O.z x                           ",
"                          z z z N ..............P L ' [ ................[ ) P ) ..............N z z z                           ",
"                          x z z x C } ........} K K K K K L P ' ) P L K K K K K [ ........} C z z z x                           ",
"                          u z z z z R ..........K K K K K K K K K K K K K K K K ..........R z z z z a                           ",
"                          e z z z u Z ..........K K K K K K K K K K K K K K K K ..........B z z z z d                           ",
"                          9 z z z z j ..........P K K K K K K K K K K K K K K P ..........k x z x x 5                           ",
"                          @ a B m m N ..........[ K K K K K K K K K K K K K K ] ..........N m m m x *                           ",
"                          - / ....................L K K K K K K K K K K K K L ....................( =                           ",
"                          = ! ....................[ K K K K K K K K K K K K ] ....................Q =                           ",
"                          = A ......................' K K K K K K K K K K ' ......................S =                           ",
"                          = = } ......................' K K K K K K K K ' ........................= =                           ",
"                          = = _ ........................[ ' L K K L ) [ ........................_ = =                           ",
"                          = =   ................................................................  = =                           ",
"                          = =     ............................................................    = =                           ",
"                          = = =     ........................................................    = = =                           ",
"                          = = = = =   ....................................................  = = = = =                           ",
"                          = = = = = = = F ............................................F = = = = = = =                           ",
"                          = = = = = = = =     ....................................    = = = = = = = =                           ",
"                            = = = = = = =     ....................................    = = = = = = =                             ",
"                            = = = = = =     ........................................    = = = = = =                             ",
"                              = = = =     ............................................    = = = =                               ",
"                                  =       ............................................      = =                                 ",
"                                            ..........................................                                          "
};
