/* XPM */
static char *tile0101692197532[] = {
/* columns rows colors chars-per-pixel */
"32 32 197 2 ",
"   c None",
".  c #18151E",
"X  c #19151E",
"o  c #19141F",
"O  c #18151F",
"+  c #19151F",
"@  c #1B141E",
"#  c #1A151F",
"$  c #1A161F",
"%  c #1C141E",
"&  c #1D151F",
"*  c #1C161E",
"=  c #1D161F",
"-  c #1D171F",
";  c #1A1321",
":  c #191420",
">  c #181520",
",  c #191520",
"<  c #191521",
"1  c #1B1520",
"2  c #1B1421",
"3  c #1A1521",
"4  c #1B1521",
"5  c #191620",
"6  c #1B1422",
"7  c #1B1522",
"8  c #1A1423",
"9  c #1B1523",
"0  c #1C1420",
"q  c #1D1420",
"w  c #1C1520",
"e  c #1D1520",
"r  c #1C1521",
"t  c #1D1521",
"y  c #1D1620",
"u  c #1D1621",
"i  c #1D1721",
"p  c #1C1422",
"a  c #1C1522",
"s  c #1D1522",
"d  c #1D1523",
"f  c #1E1522",
"g  c #1C1622",
"h  c #1D1622",
"j  c #1D1722",
"k  c #1C1623",
"l  c #1D1623",
"z  c #1C1524",
"x  c #1F1525",
"c  c #1D1624",
"v  c #1D1625",
"b  c #1E1725",
"n  c #1F1922",
"m  c #1E1823",
"M  c #231C26",
"N  c #221D27",
"B  c #251F29",
"V  c #947056",
"C  c #98745B",
"Z  c #9D775A",
"A  c #9F7B5F",
"S  c #AB764D",
"D  c #AB764E",
"F  c #AB774F",
"G  c #AC774D",
"H  c #AD774E",
"J  c #AE794D",
"K  c #AC794F",
"L  c #AD794F",
"P  c #AE7C4F",
"I  c #B07C4F",
"U  c #B17D4F",
"Y  c #A37452",
"T  c #AA7755",
"R  c #AB7755",
"E  c #AC7754",
"W  c #A57854",
"Q  c #AB7850",
"!  c #AD7950",
"~  c #AF7950",
"^  c #AF7B50",
"/  c #AC7952",
"(  c #AD7952",
")  c #AE7A52",
"_  c #AF7B52",
"`  c #AD7C51",
"'  c #AE7D52",
"]  c #AB7854",
"[  c #AC7D55",
"{  c #A07A5F",
"}  c #B07B51",
"|  c #B07C51",
" . c #B17C51",
".. c #B07D51",
"X. c #B17F50",
"o. c #B17E51",
"O. c #B17F51",
"+. c #B37F50",
"@. c #B07D53",
"#. c #B07E52",
"$. c #B17E53",
"%. c #B27E52",
"&. c #B37F54",
"*. c #947461",
"=. c #B3814F",
"-. c #B7834F",
";. c #AC8054",
":. c #B28050",
">. c #B38150",
",. c #B58151",
"<. c #B78351",
"1. c #B58152",
"2. c #B48153",
"3. c #B78352",
"4. c #B68253",
"5. c #B48154",
"6. c #B48456",
"7. c #B98452",
"8. c #B18259",
"9. c #B38259",
"0. c #B08361",
"q. c #B18560",
"w. c #B98764",
"e. c #BB8D60",
"r. c #BE9A72",
"t. c #C79458",
"y. c #D4A35B",
"u. c #D3A25C",
"i. c #D3A35C",
"p. c #D3A25D",
"a. c #D3A35D",
"s. c #D2A25E",
"d. c #D3A25E",
"f. c #D2A35E",
"g. c #D3A35E",
"h. c #D4A25C",
"j. c #D4A35C",
"k. c #D4A25D",
"l. c #D4A35D",
"z. c #D5A35D",
"x. c #D4A25E",
"c. c #D4A35E",
"v. c #D5A35E",
"b. c #D4A35F",
"n. c #D6A35E",
"m. c #D3A45D",
"M. c #D3A45E",
"N. c #D2A45F",
"B. c #D3A45F",
"V. c #D5A45C",
"C. c #D6A45C",
"Z. c #D7A45D",
"A. c #D7A55D",
"S. c #D4A45E",
"D. c #D4A45F",
"F. c #D5A55F",
"G. c #C19060",
"H. c #CA9961",
"J. c #D3A260",
"K. c #D7A167",
"L. c #E897B0",
"P. c #EB98B2",
"I. c #EA9AB5",
"U. c #EB9BBB",
"Y. c #EA9BBC",
"T. c #F2D5C0",
"R. c #F3D9C4",
"E. c #F3D9C5",
"W. c #F3DAC4",
"Q. c #F4DAC5",
"!. c #F6DEC5",
"~. c #F5DCC7",
"^. c #F7DDC6",
"/. c #F7DDC7",
"(. c #F6DDC8",
"). c #F6DEC8",
"_. c #F8E0CD",
"`. c #F9E1CD",
"'. c #F9E2CE",
"]. c #FBE3CF",
"[. c #FAE3D0",
"{. c #FBE4D0",
"}. c #FBE4D1",
"|. c #FBE5D1",
" X c #FAE4D2",
".X c #FBE4D2",
"XX c #FBE5D2",
"oX c #FBE5D3",
"OX c #FBE6D2",
"+X c #FCE6D1",
"@X c #FCE7D2",
"#X c #FCE6D3",
"$X c #FCE7D3",
"%X c #FBE6D4",
"&X c #FCE7D4",
"*X c #FDE8D4",
"=X c #F9EADF",
/* pixels */
"                                                                ",
"                                                                ",
"                                                                ",
"                                                                ",
"                                                                ",
"                      s s                 s s                   ",
"                    ; 0.0.s             s q.0.9                 ",
"                    s ).~.9.x         s s E.E.s                 ",
"                    s /.).9.s s * 9 s * ` R.R.9                 ",
"                    s /.P.T.` 4.3.5.2.~ S.w.P.9                 ",
"                    s /.L.d.m.d.d.d.d.i.d.d.P.9                 ",
"                    $ <.k.S.J.S.i.d.k.y.S.k.d.~ b               ",
"                    % 3.k.k.9 d.m.m.d.y.s d.d.~ s               ",
"                    o 3.d.d.s m.m.d.d.y.9 S.k.L s               ",
"                s * C 4.S.J.s m.Y.U.I.k.s S.m.G -               ",
"              B r.*.s t.t.S.d.m.2.U 3.k.m.m.S.6.s               ",
"              N { $ { [ t.m.k.y.].|.].m.m.m.G G 9               ",
"            x V m     * ` #.S.S.].].|.` L G G 9                 ",
"            B V m       9 $ $ O O > $ O O 9 9                   ",
"              B Z B   * H.L / ] T T ] ~ / / ] 9                 ",
"              N 6.M * =X` k.k.y.d.m.S.S.k.d.#.x                 ",
"                N W Y s 3.k.y.'._.m.S.|.d.2.$.` x               ",
"                  9 * #.k.k.y.'.%X$X+X|.d.k.k.$.s               ",
"                    * #.#.k.y.'.*X%X+X%Xm.k.S.$.x               ",
"                    s #.U 3.Z.'.*X+X+XK.k.$.#.G m               ",
"                      $ 9 '.+X#.9 $ $ #.%X|.#.s                 ",
"                          $ 9 9       9 9 $ 9                   ",
"                                                                ",
"                                                                ",
"                                                                ",
"                                                                ",
"                                                                "
};
