/* XPM */
static char *result[] = {
/* columns rows colors chars-per-pixel */
"64 64 108 2 ",
"   c #6B1E31",
".  c #6A1D33",
"X  c #6B1E32",
"o  c #691C35",
"O  c #6A1D34",
"+  c #6A1D35",
"@  c #691C36",
"#  c #691C37",
"$  c #671A39",
"%  c #671A3B",
"&  c #671A3C",
"*  c #66193E",
"=  c #681B38",
"-  c #5C0F57",
";  c #5B0E5B",
":  c #5F1251",
">  c #5E1153",
",  c #641742",
"<  c #641743",
"1  c #631644",
"2  c #631645",
"3  c #651840",
"4  c #61144A",
"5  c #570A65",
"6  c #560966",
"7  c #580B61",
"8  c #580B62",
"9  c #580B63",
"0  c #590C60",
"q  c #53066E",
"w  c #550868",
"e  c #550869",
"r  c #55086A",
"t  c #4F0278",
"y  c #4F0279",
"u  c #4E017A",
"i  c #4E017B",
"p  c #4F027A",
"a  c #4D007D",
"s  c #4E017C",
"d  c #4F017D",
"f  c #4C007E",
"g  c #4D007E",
"h  c #4D007F",
"j  c #4E007E",
"k  c #4F017E",
"l  c #510473",
"z  c #520572",
"x  c #500375",
"c  c #500376",
"v  c #510474",
"b  c #510475",
"n  c #50027D",
"m  c #53047C",
"M  c #54047C",
"N  c #55047C",
"B  c #55057C",
"V  c #54047D",
"C  c #57057C",
"Z  c #57067C",
"A  c #5A077B",
"S  c #620C79",
"D  c #660E78",
"F  c #6B1177",
"G  c #6F1376",
"H  c #701375",
"J  c #7D1B72",
"K  c #7F1C72",
"L  c #831E71",
"P  c #851F70",
"I  c #8B236F",
"U  c #8D236E",
"Y  c #8C236F",
"T  c #93276D",
"R  c #90256E",
"E  c #94286C",
"W  c #95286C",
"Q  c #96286C",
"!  c #96296C",
"~  c #97296C",
"^  c #9D2C6A",
"/  c #9C2C6B",
"(  c #98296C",
")  c #982A6C",
"_  c #862070",
"`  c #872070",
"'  c #A93367",
"]  c #A53168",
"[  c #A73268",
"{  c #B13765",
"}  c #B03766",
"|  c #B43965",
" . c #B83C63",
".. c #B93C63",
"X. c #BA3C63",
"o. c #BA3D63",
"O. c #BC3D63",
"+. c #BD3E62",
"@. c #BC3E63",
"#. c #BD3E63",
"$. c #BF3F62",
"%. c #C7445F",
"&. c #CA455F",
"*. c #CB465F",
"=. c #C24161",
"-. c #C14062",
";. c #C44261",
":. c None",
/* pixels */
":.:.:.:.:.:.:.:.:.:.:.:.:.:.:.:.:.:.:.:.:.:.:.:.:.:.:.:.:.:.:.:.:.:.:.:.:.:.:.:.:.:.:.j g :.:.:.:.:.:.:.:.:.:.:.:.:.:.:.:.:.:.:.",
":.:.:.:.:.:.:.:.:.:.:.:.:.:.:.:.:.:.:.:.:.:.:.:.:.:.:.:.:.:.:.:.:.:.:.:.:.:.:.:.:.:.:.g g g :.:.:.:.:.:.:.:.:.:.:.:.:.:.:.:.:.:.",
":.:.:.:.:.:.:.:.:.:.:.:.:.:.:.:.:.:.:.:.:.:.:.:.:.:.:.:.:.:.:.:.:.:.:.:.:.:.:.:.:.:.g g g g :.:.:.:.:.:.:.:.:.:.:.:.:.:.:.:.:.:.",
":.:.:.:.:.:.:.:.:.:.:.:.:.:.:.:.:.:.:.:.:.:.:.:.:.:.:.:.:.:.:.:.:.:.:.:.:.:.:.:.:.:.g u l g j :.:.:.:.:.:.:.:.:.:.:.:.:.:.:.:.:.",
":.:.:.:.:.:.:.:.:.:.:.:.:.:.:.:.:.:.:.:.:.:.:.:.:.:.:.:.:.:.:.:.:.:.:.:.:.:.:.:.:.h g 6 & y g g :.:.:.:.:.:.:.:.:.:.:.:.:.:.:.:.",
":.:.:.:.:.:.:.:.:.:.:.:.:.:.:.:.:.:.:.:.:.:.:.:.:.:.:.:.:.:.:.:.:.:.:.:.:.:.:.:.:.g g :   2 s g g g g :.:.:.:.:.:.:.:.:.:.:.:.:.",
":.:.:.:.:.:.:.:.:.:.:.:.:.:.:.:.:.:.:.:.:.:.:.:.:.:.:.:.:.:.:.:.:.:.:.:.:.:.:.:.:.g g %     * w s g g g :.:.:.:.:.:.:.:.:.:.:.:.",
":.:.:.:.:.:.:.:.:.:.:.:.:.:.:.:.:.:.:.:.:.:.:.:.:.:.:.:.:.:.:.:.:.:.:.:.:.:.:.:.:.g y           . > g g :.:.:.:.:.:.:.:.:.:.:.:.",
":.:.:.:.:.:.:.:.:.:.:.:.:.:.:.:.:.:.:.:.:.:.:.:.:.:.:.:.:.:.:.:.:.:.:.:.:.:.:.:.:.g i             @ a g :.:.:.:.:.:.:.:.:.:.:.:.",
":.:.:.:.:.:.:.:.:.:.:.:.:.:.:.:.:.:.:.:.:.:.:.:.:.:.:.:.:.:.:.:.:.:.:.:.:.:.:.:.:.g g               8 g g :.:.:.:.:.:.:.:.:.:.:.",
":.:.:.:.:.:.:.:.:.:.:.:.:.:.:.:.:.:.:.:.:.:.:.:.:.:.:.:.:.:.:.:.:.:.:.:.:.:.:.:.:.g g O       = .   o v g g :.:.:.:.:.:.:.:.:.:.",
":.:.:.:.:.:.:.:.:.:.:.:.:.:.:.:.:.:.:.:.:.:.:.:.:.:.:.:.:.:.:.:.:.:.:.:.:.:.:.:.:.g g 3     < a r     , s g g :.:.:.:.:.:.:.:.:.",
":.:.:.:.:.:.:.:.:.:.:.:.:.:.:.:.:.:.:.:.:.:.:.:.:.:.:.:.:.:.:.:.:.:.:.:.:.:.:.:.:.g g -   + v g 0       , v g g g a :.:.:.:.:.:.",
":.:.:.:.:.:.:.:.:.:.:.:.:.:.:.:.:.:.:.:.:.:.:.:.:.:.:.:.:.:.:.:.:.:.:.:.:.:.:.:.:.g g q   ; g b @         o 8 a g g g :.:.:.:.:.",
":.:.:.:.:.:.:.:.:.:.:.:.:.:.:.:.:.:.:.:.:.:.:.:.:.:.:.:.:.:.:.:.:.:.:.g g g g g g j g g $ t g 4               @ > g g :.:.:.:.:.",
":.:.:.:.:.:.:.:.:.:.:.:.:.:.:.:.:.:.:.:.:.:.:.:.:.:.:.:.:.:.:.:.:.g g g g B D M g g g g 5 g t .     @ 7 r .     . s g :.:.:.:.:.",
":.:.:.:.:.:.:.:.:.:.:.:.:.:.:.:.:.:.:.:.:.:.:.:.:.:.:.:.:.:.:.:.g g M ~ O.*.*.*.o.T d g g g r   . 4 x g a =       w g g :.:.:.:.",
":.:.:.:.:.:.:.:.:.:.:.:.:.:.:.:.:.:.:.:.:.:.:.:.:.:.:.:.:.:.:.g g H #.*.=.[ Q [ =.*. .C g g s r t g g c 1         * s g j :.:.:.",
":.:.:.:.:.:.:.:.:.:.:.:.:.:.:.:.:.:.:.:.:.:.:.:.:.:.:.:.:.:.g g J &.*.( m g g g M / *.%.V g g g g p ; #             2 t g g g :.",
":.:.:.:.:.:.:.:.:.:.:.:.:.:.:.:.:.:.:.:.:.:.:.:.:.:.:.:.:.g g J &.*.K g g n F k g g ' *.%.V g g 9 %                   & z g g g ",
":.:.:.:.:.:.:.:.:.:.:.:.:.:.:.:.:.:.:.:.:.:.:.:.:.:.:.:.g g J &.*.L g g Y -.*.$.U G +.*.*.%.Z g g g q - 3 O X     * > e s g g h ",
":.:.:.:.:.:.:.:.:.:.:.:.:.:.:.:.:.:.:.:.:.:.:.:.:.:.:.g g J &.*.I g g ~ *.*.*.*.*.*.*.*.*.*. .n g g g g g g g s i g g g g g :.:.",
":.:.:.:.:.:.:.:.:.:.:.:.:.:.:.:.:.:.:.:.:.:.:.:.:.:.g g J &.*.*.A g T *.*.*.*.*.*.*.*.*.*.*.*.T g g f g g g g g g g g g :.:.:.:.",
":.:.:.:.:.:.:.:.:.:.:.:.:.:.:.:.:.:.:.:.:.:.:.:.:.g g J &.*.*.*.} ' *.*.*.*.*.*.*.*.*.*.*.*.*...g g :.:.:.:.:.:.:.:.:.:.:.:.:.:.",
":.:.:.:.:.:.:.:.:.:.:.:.:.:.:.:.:.:.:.:.:.:.:.:.g g J &.*.] | *.*.*.*.*.*.*.*.*.*.*.*.*.*.*.*.*.m g :.:.:.:.:.:.:.:.:.:.:.:.:.:.",
":.:.:.:.:.:.:.:.:.:.:.:.:.:.:.:.:.:.:.:.:.:.:.g g J &.*.` g S *.*.*.*.*.*.*.*.*.*.*.*.*.*.*.*.*.D g :.:.:.:.:.:.:.:.:.:.:.:.:.:.",
":.:.:.:.:.:.:.:.:.:.:.:.:.:.:.:.:.:.:.:.:.:.g g J &.*._ g g E *.*.*.*.*.*.*.*.*.*.*.*.*.*.*.*.*.N g :.:.:.:.:.:.:.:.:.:.:.:.:.:.",
":.:.:.:.:.:.:.:.:.:.:.:.:.:.:.:.:.:.:.:.:.g g J &.*.P g g R *.*.*.*.*.*.*.*.*.*.*.*.*.*.*.*.*.X.g g :.:.:.:.:.:.:.:.:.:.:.:.:.:.",
":.:.:.:.:.:.:.:.:.:.:.:.:.:.:.:.:.:.:.:.g g J &.*.' g g R *.*.*.*.*.*.*.*.*.*.*.*.*.*.*.*.*.*.W g j :.:.:.:.:.:.:.:.:.:.:.:.:.:.",
":.:.:.:.:.:.:.:.:.:.:.:.:.:.:.:.:.:.:.g g J &.*.*.@.F ! *.*.*.*.*.*.*.*.*.*.*.*.*.*.*.*.*.*.@.M g :.:.:.:.:.:.:.:.:.:.:.:.:.:.:.",
":.:.:.:.:.:.:.:.:.:.:.:.:.:.:.:.:.:.g g J &.*.*.*.*.*.*.*.*.*.*.*.*.*.*.*.*.*.*.*.*.*.*.*.&.G g g :.:.:.:.:.:.:.:.:.:.:.:.:.:.:.",
":.:.:.:.:.:.:.:.:.:.:.:.:.:.:.:.:.g g J &.*.*.*.*.*.*.*.*.*.*.*.*.*.*.*.*.*.*.*.*.*.*.*.&.J g g :.:.:.:.:.:.:.:.:.:.:.:.:.:.:.:.",
":.:.:.:.:.:.:.:.:.:.:.:.:.:.:.:.g g J &.*.*.*.*.*.*.*.*.*.*.*.*.*.*.*.*.*.*.*.*.*.*.*.&.J g g :.:.:.:.:.:.:.:.:.:.:.:.:.:.:.:.:.",
":.:.:.:.:.:.:.:.:.:.:.:.:.:.:.g g G &.*.*.*.*.*.*.*.*.*.*.*.*.*.*.*.*.*.*.*.*.*.*.*.&.J g g :.:.:.:.:.:.:.:.:.:.:.:.:.:.:.:.:.:.",
":.:.:.:.:.:.:.:.:.:.:.:.:.:.:.g M @.*.*.*.*.*.*.*.*.*.*.*.*.*.*.*.*.*.*.! F @.*.*.&.J g g :.:.:.:.:.:.:.:.:.:.:.:.:.:.:.:.:.:.:.",
":.:.:.:.:.:.:.:.:.:.:.:.:.:.j g W *.*.*.*.*.*.*.*.*.*.*.*.*.*.*.*.*.*.R g g ' *.&.J g g :.:.:.:.:.:.:.:.:.:.:.:.:.:.:.:.:.:.:.:.",
":.:.:.:.:.:.:.:.:.:.:.:.:.:.g g X.*.*.*.*.*.*.*.*.*.*.*.*.*.*.*.*.*.R g g P *.&.J g g :.:.:.:.:.:.:.:.:.:.:.:.:.:.:.:.:.:.:.:.:.",
":.:.:.:.:.:.:.:.:.:.:.:.:.:.g N *.*.*.*.*.*.*.*.*.*.*.*.*.*.*.*.*.E g g _ *.&.J g g :.:.:.:.:.:.:.:.:.:.:.:.:.:.:.:.:.:.:.:.:.:.",
":.:.:.:.:.:.:.:.:.:.:.:.:.:.g D *.*.*.*.*.*.*.*.*.*.*.*.*.*.*.*.*.S g ` *.&.J g g :.:.:.:.:.:.:.:.:.:.:.:.:.:.:.:.:.:.:.:.:.:.:.",
":.:.:.:.:.:.:.:.:.:.:.:.:.:.g m *.*.*.*.*.*.*.*.*.*.*.*.*.*.*.*.*.| ] *.&.J g g :.:.:.:.:.:.:.:.:.:.:.:.:.:.:.:.:.:.:.:.:.:.:.:.",
":.:.:.:.:.:.:.:.:.:.:.:.:.:.g g ..*.*.*.*.*.*.*.*.*.*.*.*.*.' { *.*.*.&.J g g :.:.:.:.:.:.:.:.:.:.:.:.:.:.:.:.:.:.:.:.:.:.:.:.:.",
":.:.:.:.h g g g g g g g g g g g T *.*.*.*.*.*.*.*.*.*.*.*.T g A *.*.&.J g g :.:.:.:.:.:.:.:.:.:.:.:.:.:.:.:.:.:.:.:.:.:.:.:.:.:.",
":.:.g g g g g i s g g g g g g g n  .*.*.*.*.*.*.*.*.*.*.~ g g I *.&.J g g :.:.:.:.:.:.:.:.:.:.:.:.:.:.:.:.:.:.:.:.:.:.:.:.:.:.:.",
"j g g s e > *     X O 3 - q g g g Z %.*.*.+.G U $.*.-.Y g g L *.&.J g g :.:.:.:.:.:.:.:.:.:.:.:.:.:.:.:.:.:.:.:.:.:.:.:.:.:.:.:.",
"g g g z &                   $ 5 g g V %.*.' g g k F n g g K *.&.J g g :.:.:.:.:.:.:.:.:.:.:.:.:.:.:.:.:.:.:.:.:.:.:.:.:.:.:.:.:.",
":.g g g t 2             + ; t g g g g V %.*.^ B g g g m ) *.&.J g g :.:.:.:.:.:.:.:.:.:.:.:.:.:.:.:.:.:.:.:.:.:.:.:.:.:.:.:.:.:.",
":.:.:.j g s *         < v g g t r s g g C  .*.;.' ! [ =.*.#.H g g :.:.:.:.:.:.:.:.:.:.:.:.:.:.:.:.:.:.:.:.:.:.:.:.:.:.:.:.:.:.:.",
":.:.:.:.g g w       = a g x 4 .   r g g g d T o.*.*.*.O.~ M g g :.:.:.:.:.:.:.:.:.:.:.:.:.:.:.:.:.:.:.:.:.:.:.:.:.:.:.:.:.:.:.:.",
":.:.:.:.:.g s .     . r 7 @     . t g 5 g g g g M D B g g g g :.:.:.:.:.:.:.:.:.:.:.:.:.:.:.:.:.:.:.:.:.:.:.:.:.:.:.:.:.:.:.:.:.",
":.:.:.:.:.g g > @               4 g t $ g g j g g g g g g :.:.:.:.:.:.:.:.:.:.:.:.:.:.:.:.:.:.:.:.:.:.:.:.:.:.:.:.:.:.:.:.:.:.:.",
":.:.:.:.:.g g g a 8 o         @ x g ;   q g g :.:.:.:.:.:.:.:.:.:.:.:.:.:.:.:.:.:.:.:.:.:.:.:.:.:.:.:.:.:.:.:.:.:.:.:.:.:.:.:.:.",
":.:.:.:.:.:.a g g g v ,       7 g v +   - g g :.:.:.:.:.:.:.:.:.:.:.:.:.:.:.:.:.:.:.:.:.:.:.:.:.:.:.:.:.:.:.:.:.:.:.:.:.:.:.:.:.",
":.:.:.:.:.:.:.:.:.g g s ,     r a <     3 g g :.:.:.:.:.:.:.:.:.:.:.:.:.:.:.:.:.:.:.:.:.:.:.:.:.:.:.:.:.:.:.:.:.:.:.:.:.:.:.:.:.",
":.:.:.:.:.:.:.:.:.:.g g v o   . =       O g g :.:.:.:.:.:.:.:.:.:.:.:.:.:.:.:.:.:.:.:.:.:.:.:.:.:.:.:.:.:.:.:.:.:.:.:.:.:.:.:.:.",
":.:.:.:.:.:.:.:.:.:.:.g g 8               g g :.:.:.:.:.:.:.:.:.:.:.:.:.:.:.:.:.:.:.:.:.:.:.:.:.:.:.:.:.:.:.:.:.:.:.:.:.:.:.:.:.",
":.:.:.:.:.:.:.:.:.:.:.:.g a @             i g :.:.:.:.:.:.:.:.:.:.:.:.:.:.:.:.:.:.:.:.:.:.:.:.:.:.:.:.:.:.:.:.:.:.:.:.:.:.:.:.:.",
":.:.:.:.:.:.:.:.:.:.:.:.g g > .           y g :.:.:.:.:.:.:.:.:.:.:.:.:.:.:.:.:.:.:.:.:.:.:.:.:.:.:.:.:.:.:.:.:.:.:.:.:.:.:.:.:.",
":.:.:.:.:.:.:.:.:.:.:.:.g g g s w *     % g g :.:.:.:.:.:.:.:.:.:.:.:.:.:.:.:.:.:.:.:.:.:.:.:.:.:.:.:.:.:.:.:.:.:.:.:.:.:.:.:.:.",
":.:.:.:.:.:.:.:.:.:.:.:.:.g g g g s 2   : g g :.:.:.:.:.:.:.:.:.:.:.:.:.:.:.:.:.:.:.:.:.:.:.:.:.:.:.:.:.:.:.:.:.:.:.:.:.:.:.:.:.",
":.:.:.:.:.:.:.:.:.:.:.:.:.:.:.:.g g y & 6 g h :.:.:.:.:.:.:.:.:.:.:.:.:.:.:.:.:.:.:.:.:.:.:.:.:.:.:.:.:.:.:.:.:.:.:.:.:.:.:.:.:.",
":.:.:.:.:.:.:.:.:.:.:.:.:.:.:.:.:.j g l u g :.:.:.:.:.:.:.:.:.:.:.:.:.:.:.:.:.:.:.:.:.:.:.:.:.:.:.:.:.:.:.:.:.:.:.:.:.:.:.:.:.:.",
":.:.:.:.:.:.:.:.:.:.:.:.:.:.:.:.:.:.g g g g :.:.:.:.:.:.:.:.:.:.:.:.:.:.:.:.:.:.:.:.:.:.:.:.:.:.:.:.:.:.:.:.:.:.:.:.:.:.:.:.:.:.",
":.:.:.:.:.:.:.:.:.:.:.:.:.:.:.:.:.:.g g g :.:.:.:.:.:.:.:.:.:.:.:.:.:.:.:.:.:.:.:.:.:.:.:.:.:.:.:.:.:.:.:.:.:.:.:.:.:.:.:.:.:.:.",
":.:.:.:.:.:.:.:.:.:.:.:.:.:.:.:.:.:.:.g h :.:.:.:.:.:.:.:.:.:.:.:.:.:.:.:.:.:.:.:.:.:.:.:.:.:.:.:.:.:.:.:.:.:.:.:.:.:.:.:.:.:.:."
};
