/* XPM */
static char *result[] = {
/* columns rows colors chars-per-pixel */
"64 64 5 1 ",
"  c #151327",
". c #37946E",
"X c #99E550",
"o c #D7FF58",
"O c None",
/* pixels */
"OOOOOOOOOOOOOOOOOOOOOOOOOOOOOOOOOOOOOOOOOOOOOOOOOOOOOOOOOOOOOOOO",
"OOOOOOOOOOOOOOOOOOOOOOOOOOOOOOOOOOOOOOOOOOOOOOOOOOOOOOOOOOOOOOOO",
"OOOOOOOOOOOOOOOOOOOOOOOOOOOOOOOOOOOOOOOOOOOOOOOOOOOOOOOOOOOOOOOO",
"OOOOOOOOOOOOOOOOOOOOOOOOOOOOOOOOOOOOOOOOOOOOOOOOOOOOOOOOOOOOOOOO",
"OOOOOOOOOOOOOOOOOOOOOOOOOOOOOOOOOOOOOOOOOOOOOOOOOOOOOOOOOOOOOOOO",
"OOOOOOOOOOOOOOOOOOOOOOOOOOOOOOOOOOOOOOOOOOOOOOOOOOOOOOOOOOOOOOOO",
"OOOOOOOOOOOOOOOOOOOOOOOOOOOOOOOOOOOOOOOOOOOOOOOOOOOOOOOOOOOOOOOO",
"OOOOOOOOOOOOOOOOOOOOOOOOOOOOOOOOOOOOOOOOOOOOOOOOOOOOOOOOOOOOOOOO",
"OOOOOOOOOOOO                                        OOOOOOOOOOOO",
"OOOOOOOOOO  oooooooooooooooooooooooooooooooooooooooo  OOOOOOOOOO",
"OOOOOOOOO ..oXXXXXXXXXXXXXXXXXXXXXXXXXXXXXXXXXXXXXXo.. OOOOOOOOO",
"OOOOOOOOO .oXXXXXXXXXXXXXXXXXXXXXXXXXXXXXXXXXXXXXXXXo. OOOOOOOOO",
"OOOOOOOO ..XXXXXXXXXXXXXXXXXXXXXXXXXXXXXXXXXXXXXXXXXX.. OOOOOOOO",
"OOOOOOOO ..XXXXXXXXXXXXXXXXXXXXXXXXXXoXXXXXXXXXXXXXXX.. OOOOOOOO",
"OOOOOOOO ..XXXXXXXXXXXXXXXXXXXXXXXXoXXXXXXXXXXXXXXXXX.. OOOOOOOO",
"OOOOOOOO ..XXXXXXXXXXXXXXXXXXXXXXXXXXXXXXXXXXXXXXXXXX.. OOOOOOOO",
"OOOOOOOO ..XXXXXXXXXXXXXXXXXXXXXXXXXXXXXXXXXXXXXXXXXX.. OOOOOOOO",
"OOOOOOOO ..XXXXXXXoXXXXXXXXXXXXXXXXXXXXXXXXXXXXXXXXXX.. OOOOOOOO",
"OOOOOOOO ..XXXXXXXXXXXXXXXXXXXXXXXXXXXXXXXXXXXXXXXXXX.. OOOOOOOO",
"OOOOOOOO ..XXXXXXXXXXXXXXXXXXXXXXXXXXXXXXXXXXXXXXXXXX.. OOOOOOOO",
"OOOOOOOO ..XXXXXXXXXXXXXXXXXXXXXXXXXXXXXXXXXXXXXXXXXX.. OOOOOOOO",
"OOOOOOOO ..XXXXXXXXXXXXXXXXXXXXXXXXXXXXXXXXXXXXXXXXXX.. OOOOOOOO",
"OOOOOOOO ..XXXXXXXXXXXXXXXXXXXXXXXXXXXXXXXXXXXXXXXXXX.. OOOOOOOO",
"OOOOOOOO ..XXXXXXXXXXXXXXXXXXXXXXXXXXXXXXXXXXXXXXXXXX.. OOOOOOOO",
"OOOOOOOO ..XXXXXXXXXXXXXXXXXXXXXXXXXXXXXXXXXXXXXXXXXX.. OOOOOOOO",
"OOOOOOOO ..XXXXXXXXXXXXXXXXXXXXXXXXXXXXXXXXXXXXXXXXXX.. OOOOOOOO",
"OOOOOOOO ..XXXXXXXXXXXXXXXXXXXXXXXXXXXXXXXXXXXXXXXXXX.. OOOOOOOO",
"OOOOOOOO ..XXXXXXXXXXXXXXXXXXXXXXXXXXXXXXXXXXXXXXXXXX.. OOOOOOOO",
"OOOOOOOO ..XXXXXXXXXXXXXXXXXXXXXXXXXXXXXXXXXXXXXXXXXX.. OOOOOOOO",
"OOOOOOOO ..XXXXXXXXXXXXXXXXXXXXXXXXXXXXXXXXXXoXXXXXXX.. OOOOOOOO",
"OOOOOOOO ..XXXXXXXXXXXXXXXXXXXXXXXXXXXXXXXXXXXXXXXXXX.. OOOOOOOO",
"OOOOOOOO ..XXXXXXXXXXXXXXXXXXXXXXXXXXXXXXXXXXXXXXXXXX.. OOOOOOOO",
"OOOOOOOO ..XXXXXXXXXXXXXXXXXXXXXXXXXXXXXXXXXXXXXXXXXX.. OOOOOOOO",
"OOOOOOOO ..XXXXXXXXXXXXXXXXXXXXXXXXXXXXXXXXXXXXXoXXXX.. OOOOOOOO",
"OOOOOOOO ..XXXXXXXXXXXXXXXXXXXXXXXXXXXXXXXXXXXXXXXXXX.. OOOOOOOO",
"OOOOOOOO ..XXXXXXXXXXXXXXXXXXXXXXXXXXXXXXXXXXXXXXXXXX.. OOOOOOOO",
"OOOOOOOO ..XXXXXXXXXXXXXXXXXXXXXXXXXXXXXXXXXXXXXXXXXX.. OOOOOOOO",
"OOOOOOOO ..XXXXXXXXXXXXXXXXXoXXXXXXXXXXXXXXXXXXXXXXXX.. OOOOOOOO",
"OOOOOOOO ..XXXXXXXXXXXXXXXXXXXXXXXXXXXXXXXXXXXXXXXXXX.. OOOOOOOO",
"OOOOOOOO ..XXXXXXXXXXXXXXXXXXXXXXXXXXXXXXXXXXXXXXXXXX.. OOOOOOOO",
"OOOOOOOO ..XXXXXXXXXXXXXXXXXXXXXXXXXXXXXXXXXXXXXXXXXX.. OOOOOOOO",
"OOOOOOOO ..XXXXXXXoXXXXXXXXXXXXXXXXXXXXXXXXXXXXXXXXXX.. OOOOOOOO",
"OOOOOOOO ..XXXXXXXXXXXXXXXXXXXXXXXXXXXXXXXXXXXXXXXXXX.. OOOOOOOO",
"OOOOOOOO ..XXXXXXXXXXXXXXXXXXXXXXXXXXXXXXXXXXXXXXXXXX.. OOOOOOOO",
"OOOOOOOO ..XXXXXXXXXXXXXXXXXXXXXXXXXXXXXXXXXXXXXXXXXX.. OOOOOOOO",
"OOOOOOOO ..XXXXXXXXXXXXXXXXXXXXXXXXXXXXXXXXXXXXXXXXXX.. OOOOOOOO",
"OOOOOOOO ..XXXXXXXXXXXXXXXXXXXXXXXXXXXXXXoXXXXXXXXXXX.. OOOOOOOO",
"OOOOOOOO ..XXXXXXXXXXXXXXXXXXXXXXXXXXXXoXXXXXXXXXXXXX.. OOOOOOOO",
"OOOOOOOO ..oXXXXXXXXXXXXXXXXXXXXXXXXXXXXXXXXXXXXXXXXo.. OOOOOOOO",
"OOOOOOOO ...oXXXXXXXXXXXXXXXXXXXXXXXXXXXXXXXXXXXXXXo... OOOOOOOO",
"OOOOOOOO ....oooooooooooooooooooooooooooooooooooooo.... OOOOOOOO",
"OOOOOOOO .............................................. OOOOOOOO",
"OOOOOOOOO ............................................ OOOOOOOOO",
"OOOOOOOOO ............................................ OOOOOOOOO",
"OOOOOOOOOO  ........................................  OOOOOOOOOO",
"OOOOOOOOOOOO                                        OOOOOOOOOOOO",
"OOOOOOOOOOOOOOOOOOOOOOOOOOOOOOOOOOOOOOOOOOOOOOOOOOOOOOOOOOOOOOOO",
"OOOOOOOOOOOOOOOOOOOOOOOOOOOOOOOOOOOOOOOOOOOOOOOOOOOOOOOOOOOOOOOO",
"OOOOOOOOOOOOOOOOOOOOOOOOOOOOOOOOOOOOOOOOOOOOOOOOOOOOOOOOOOOOOOOO",
"OOOOOOOOOOOOOOOOOOOOOOOOOOOOOOOOOOOOOOOOOOOOOOOOOOOOOOOOOOOOOOOO",
"OOOOOOOOOOOOOOOOOOOOOOOOOOOOOOOOOOOOOOOOOOOOOOOOOOOOOOOOOOOOOOOO",
"OOOOOOOOOOOOOOOOOOOOOOOOOOOOOOOOOOOOOOOOOOOOOOOOOOOOOOOOOOOOOOOO",
"OOOOOOOOOOOOOOOOOOOOOOOOOOOOOOOOOOOOOOOOOOOOOOOOOOOOOOOOOOOOOOOO",
"OOOOOOOOOOOOOOOOOOOOOOOOOOOOOOOOOOOOOOOOOOOOOOOOOOOOOOOOOOOOOOOO"
};
