/* XPM */
static char *f5e105c35b444150f11748582d77f809wZdROU39HZXAeBLv[] = {
/* columns rows colors chars-per-pixel */
"32 32 2 1 ",
"  c None",
". c black",
/* pixels */
"  .                             ",
"  ..                    ..      ",
"  ...                  ...      ",
"  ...                  ...      ",
"  ....                ....      ",
"  ....               .....      ",
"  ........................      ",
"  ........................      ",
"  ........................      ",
"  ........................      ",
"  ........................      ",
"  ...... ......... .......      ",
"  .....    ......    .....      ",
"  ..... .. ...... .. .....      ",
"  .....    ......    .....      ",
"  ........................      ",
"  ........................  .   ",
"  ..........   ........... .    ",
"  ...........  ........... .    ",
"  ..........................    ",
"  .........................     ",
"  .........................     ",
"  .........................     ",
"  ..........................    ",
"  ........................ .    ",
"  ........................ .    ",
"  ........................ ..   ",
"  ........................  .   ",
"  ........................  ..  ",
"  .......................   ..  ",
"   ......................   .   ",
"    .........................   "
};
