/* XPM */
static char *rocks1_51692261890[] = {
/* columns rows colors chars-per-pixel */
"64 64 9 1 ",
"  c None",
". c #151327",
"X c #63514F",
"o c #8A796E",
"O c #37946E",
"+ c #99E550",
"@ c #D7FF58",
"# c #C7AF9E",
"$ c #F6E3C3",
/* pixels */
"                                                                ",
"                                                                ",
"                                                                ",
"                                                                ",
"                                                                ",
"                                                                ",
"                                                                ",
"                                                                ",
"                                                                ",
"                                                                ",
"                               .....                            ",
"                          .....$$$$$.....                       ",
"                         .$$$$$#####$$$$$..                     ",
"                        .$###############$$.                    ",
"                       .$##################$.                   ",
"                       .####################.                   ",
"                      .$####################.                   ",
"                      .#####################.                   ",
"                     .$#####################$.                  ",
"                     .#######################.                  ",
"                     .#######################.                  ",
"                    .o#######################.                  ",
"                    .o#######################.                  ",
"                .  .oo#######################$.                 ",
"               .@. .oo########################.                 ",
"              .@O+.ooo########################.                 ",
"               ..O@.oo########################.                 ",
"               . .+.oo########################.                 ",
"              .@.++.ooo#######################.                 ",
"          .... .+++.ooo###################oooo.                 ",
"         .$$$$.OO+.ooooo################oo$$$$$.                ",
"        .$####$....ooooo##############oo$$#####.                ",
"       .$######$$..ooooo############oo$$o######.                ",
"      .$ooo######$..ooooo##########o$$##$o#####.                ",
"     .$#$$$oo#####$.ooooo########oo$#####$ooooo.                ",
"     .#####$$oooooo$.oooo#######o$$#######$$$$$.                ",
"    .o#######$$$$$$#$.oooo##oooo$#############.                 ",
"   .o$###############$.ooooo$$$$###############.                ",
"   .o#################$.ooo$###################.                ",
"  .o$##################.ooo####################.                ",
"  .o###################$.ooo###################.                ",
"  .o####################o.ooo#################o.   .            ",
"  .o#########ooo########$o.oo#################o. ..@.           ",
"  .o#######oo$$$oo#######o.ooo###############oo..++.            ",
"  .oo#####o$$###$$o######o.oooo#############ooo.O+.             ",
"  .ooo##oo$#######$oo####oo.oooo###########oooo.OO.             ",
"  .ooooo$$#########$$oooooo.ooooo#########ooooo.O......         ",
"  .ooooo#############$$oooo.oooooo#######oooooo..$$$$$$..       ",
"  .oooooo#############ooooo.Xoooooooooooooooooo.$######$$.      ",
"   .oooooo##########ooooooX.XXoooooooooooooooo.o#########o.     ",
"    .XXooooooo#####ooooXXX.XXXXoooooooooooXXX.ooo#######ooo.    ",
"     .XXXooooooooooooXXXX...XXXXooooooooXXXX...ooo#####ooooo.   ",
"      .XXXXXXXXXXXXXXXX......XXXXXXXXXXXXXX.....ooooooooooooo.  ",
"                                                                ",
"                                                                ",
"                                                                ",
"                                                                ",
"                                                                ",
"                                                                ",
"                                                                ",
"                                                                ",
"                                                                ",
"                                                                ",
"                                                                "
};
