/* XPM */
static char *result[] = {
/* columns rows colors chars-per-pixel */
"64 64 6 1 ",
"  c #151327",
". c #63514F",
"X c #8A796E",
"o c #C7AF9E",
"O c #F6E3C3",
"+ c None",
/* pixels */
"++++++++++++++++++++++++++++++++++++++++++++++++++++++++++++++++",
"++++++++++++++++++++++++++++++++++++++++++++++++++++++++++++++++",
"++++++++++++++++++++++++++++++++++++++++++++++++++++++++++++++++",
"++++++++++++++++++++++++++++++++++++++++++++++++++++++++++++++++",
"++++++++++++++++++++++++++++++++++++++++++++++++++++++++++++++++",
"++++++++++++++++++++++++++++++++++++++++++++++++++++++++++++++++",
"++++++++++++++++++++++++++++++++++++++++++++++++++++++++++++++++",
"++++++++++++++++++++++++++++++++++++++++++++++++++++++++++++++++",
"++++++++++++++++++++++++++++++++++++++++++++++++++++++++++++++++",
"++++++++++++++++++++++++++++++++++++++++++++++++++++++++++++++++",
"++++++++++++++++++++++++++++++++++++++++++++++++++++++++++++++++",
"++++++++++++++++++++++++++++++++++++++++++++++++++++++++++++++++",
"++++++++++++++++++++++++++++++++++++++++++++++++++++++++++++++++",
"++++++++++++++++++++++++++++++++++++++++++++++++++++++++++++++++",
"++++++++++++++++++++++++++++++++++++++++++++++++++++++++++++++++",
"++++++++++++++++++++++++++++++++++++++++++++++++++++++++++++++++",
"++++++++++++                                        ++++++++++++",
"+++++++++++ OOOOOOOXXOOOOOOOOOOOOOOOOOOOOOOOOOOOOOOO +++++++++++",
"++++++++++ OoooooooOOXooooooooooooooooooooooooooooooO ++++++++++",
"++++++++++ ooooooooooOXXooooooooooooooooooooooooooooo ++++++++++",
"+++++++++ OoooooooooooOOXooooooooooooooooooooooooooooO +++++++++",
"+++++++++ OoooooooooooooOXoooooooooooooooooooooooooooo +++++++++",
"+++++++++ oooooooooooooooXoooooooooooooooooooooooooooo +++++++++",
"+++++++++ oooooooooooooooOXooooooooooooooooooooooooooo +++++++++",
"++++++++ OooooooooooooooooXoooooooooooooooooooooooooooO ++++++++",
"++++++++ oooooooooooooooooXoooooooooooooooooooooooooooo ++++++++",
"++++++++ oooooooooooooooooXoooooooooooooooooooooooooooo ++++++++",
"++++++++ oooooooooooooooooOXooooooooooooooooooooooooooo ++++++++",
"++++++++ ooooooooooooooooooXooooooooooooooooooooooooooo ++++++++",
"++++++++ ooooooooooooooooooOXoooooooooooooooooooooooooo ++++++++",
"++++++++ oooooooooooooooooooXoooooooooooooooooooooooooo ++++++++",
"++++++++ oooooooooooooooooooXoooooooooooooooooooooooooo ++++++++",
"++++++++ oooooooooooooooooooXoooooooooooooooooooooooooo ++++++++",
"++++++++ oooooooooooooooooooOXooooooooooooooooooooooooo ++++++++",
"++++++++ ooooooooooooooooooooOXoooooooooooooooooooooooo ++++++++",
"++++++++ oooooooooooooooooooooOXooooooooooooooooooooooo ++++++++",
"++++++++ XoooooooooooooooooooooXXoooooooooooooooooooooX ++++++++",
"++++++++ XoooooooooooooooooooooXOXXoooooooooooooooooooX ++++++++",
"++++++++ XXOoooooooooooooooooooXoOOXXoooooooooooooooOXX ++++++++",
"++++++++ XXXXOooooooooooooooooXOoooOOXXoooooooooooOXXXX ++++++++",
"++++++++ XXXXXXXXXXXXXXXXXXXXXXXXXXXXXXXXXXXXXXXXXXXXXX ++++++++",
"++++++++ .XXXXXXXXXXXXXXXXXXXXXXXXXXXXXXXXXXXXXXXXXXXX. ++++++++",
"++++++++ .XXXXXXXXXXXXXXXXXXXXXXXXXXXXXXXXXXXXXXXXXXXX. ++++++++",
"++++++++ ..XXXXXXXXXXXXXXXXXXXXXXXXXXXXXXXXXXXXXXXXXX.. ++++++++",
"++++++++ ...XXXXXXXXXXXXXXXXXXXXXXXXXXXXXXXXXXXXXXXX... ++++++++",
"++++++++ .............................................. ++++++++",
"+++++++++ ............................................ +++++++++",
"++++++++++                                            ++++++++++",
"++++++++++++++++++++++++++++++++++++++++++++++++++++++++++++++++",
"++++++++++++++++++++++++++++++++++++++++++++++++++++++++++++++++",
"++++++++++++++++++++++++++++++++++++++++++++++++++++++++++++++++",
"++++++++++++++++++++++++++++++++++++++++++++++++++++++++++++++++",
"++++++++++++++++++++++++++++++++++++++++++++++++++++++++++++++++",
"++++++++++++++++++++++++++++++++++++++++++++++++++++++++++++++++",
"++++++++++++++++++++++++++++++++++++++++++++++++++++++++++++++++",
"++++++++++++++++++++++++++++++++++++++++++++++++++++++++++++++++",
"++++++++++++++++++++++++++++++++++++++++++++++++++++++++++++++++",
"++++++++++++++++++++++++++++++++++++++++++++++++++++++++++++++++",
"++++++++++++++++++++++++++++++++++++++++++++++++++++++++++++++++",
"++++++++++++++++++++++++++++++++++++++++++++++++++++++++++++++++",
"++++++++++++++++++++++++++++++++++++++++++++++++++++++++++++++++",
"++++++++++++++++++++++++++++++++++++++++++++++++++++++++++++++++",
"++++++++++++++++++++++++++++++++++++++++++++++++++++++++++++++++",
"++++++++++++++++++++++++++++++++++++++++++++++++++++++++++++++++"
};
