/* XPM */
static char *Cactus1_11692778928[] = {
/* columns rows colors chars-per-pixel */
"32 32 13 1 ",
"  c None",
". c #13362F",
"X c #1B473E",
"o c #6D4936",
"O c #246544",
"+ c #277345",
"@ c #805A40",
"# c #9A734B",
"$ c #40A23D",
"% c #4AB734",
"& c #368C47",
"* c #AE8954",
"= c #C2A162",
/* pixels */
"                                ",
"                .               ",
"              ....... .         ",
"         .  ..%&%%&%$.          ",
"          ..%$&$%&%%&%..        ",
"         .+$$&&%$&%$&$%$.       ",
"        .+&$$&$%$&$$&&$$+. .    ",
"        .&$$++$$$&$$$&$$&O.     ",
"     . .+&$+O$$$$&$$$+$$$+.     ",
"      .O&&&O+$$$$&$$$++$&+O.    ",
"      .+&&+O+$$$$+$$$&O&&&O.    ",
"     .O+&&OO+&$$+++$&&O+&&+O.   ",
"     .O++&O++&&&+O+&&&+O&&+O.   ",
"     .O++OO++&&&+O+&&&+O&++OX.  ",
"    .XO++OXO+&&&+O+&&&+O+++OX.  ",
"  ...XOO+OXO+&&&OO+&&++O++OXX.. ",
"    .XOO+OXO++&+OO++&+OOO+OXX.  ",
"    .XXO+OXO++&+OO++++OXO+OXX.  ",
"     .XO+OXO++++OOO+++OXOOOX.   ",
"     .XO+OXOO+++OXO+++OXOOXX.   ",
"    #.XXO+OXO+++OXO+++OXOOX.    ",
"   ##=.XO+OXOO++OXO+++OXOXX.#   ",
"   ####.XOOXXO++OXOO+OXXOX.###  ",
"   ##@@@.XOXXOO+OXOOOOXOX.@@#*  ",
"   ####@o.XOXXOOOXOOOXXX.o@###  ",
"    ####@o.XXXXOXXXOXXX.o@###   ",
"     *###@o..XXXXXXXXX.o@##*    ",
"      ##@#@@o.........@@#@#     ",
"       #####@@@@@@o@@@@###      ",
"         ###*##@##@@####        ",
"            ####*#@##           ",
"                                "
};
