/* XPM */
static char *castle_32px1692698573[] = {
/* columns rows colors chars-per-pixel */
"32 32 158 2 ",
"   c None",
".  c #480901",
"X  c #4A0B03",
"o  c #520E05",
"O  c #531007",
"+  c #7F170A",
"@  c #7F170B",
"#  c #7A180C",
"$  c #7F190C",
"%  c #7C1A0E",
"&  c #763D34",
"*  c #773F36",
"=  c #80190C",
"-  c #81190D",
";  c #871C0E",
":  c #851E10",
">  c #881D10",
",  c #881E10",
"<  c #8D2214",
"1  c #B02616",
"2  c #B02717",
"3  c #B62515",
"4  c #B62616",
"5  c #B62617",
"6  c #B12718",
"7  c #B42D1D",
"8  c #B92C1C",
"9  c #9F4B38",
"0  c #9F483B",
"q  c #9F4C39",
"w  c #9F493C",
"e  c #A0493D",
"r  c #A34D3F",
"t  c #AE7D73",
"y  c #C75540",
"u  c #C85641",
"i  c #CA5A45",
"p  c #DF6F52",
"a  c #E17559",
"s  c #B28074",
"d  c #C68477",
"f  c #C68B70",
"g  c #C48B72",
"h  c #CA8778",
"j  c #DB9076",
"k  c #DE9175",
"l  c #FD8B69",
"z  c #FD8C69",
"x  c #FD8E6C",
"c  c #FD906F",
"v  c #E78A71",
"b  c #EB8D77",
"n  c #ED907C",
"m  c #FD9170",
"M  c #FF9373",
"N  c #FD9474",
"B  c #FD9576",
"V  c #FD987A",
"C  c #FF997A",
"Z  c #FD9B7E",
"A  c #C2948A",
"S  c #D4998D",
"D  c #D3A284",
"F  c #E5A688",
"G  c #FEA185",
"H  c #FEA186",
"J  c #FDA387",
"K  c #F1A58D",
"L  c #FFA589",
"P  c #FEA68C",
"I  c #FEAD95",
"U  c #FDAE96",
"Y  c #FEB19B",
"T  c #FDB29A",
"R  c #FEB29C",
"E  c #FEB39D",
"W  c #FFB49C",
"Q  c #FEB59E",
"!  c #FEB79F",
"~  c #FEB6A0",
"^  c #FEB7A2",
"/  c #FEB7A3",
"(  c #FEB8A0",
")  c #FFB8A1",
"_  c #FEBAA2",
"`  c #FEBCA3",
"'  c #FEC1A7",
"]  c #FEC3A9",
"[  c #FEC0AD",
"{  c #FEC2AF",
"}  c #FEC9AC",
"|  c #FDCAAD",
" . c #FECBAE",
".. c #FEC3B1",
"X. c #FEC4B2",
"o. c #FEC6B5",
"O. c #FDCEB0",
"+. c #FDCFB0",
"@. c #FEC8B7",
"#. c #FEC8B8",
"$. c #FECBBB",
"%. c #FECDBD",
"&. c #FECFBD",
"*. c #FDD5B4",
"=. c #FDD6B5",
"-. c #FDD8B6",
";. c #FDD9B7",
":. c #F8DEB9",
">. c #FADEB9",
",. c #FADFBA",
"<. c #FDDDB9",
"1. c #FDDCBB",
"2. c #FDDEBA",
"3. c #FBE2BD",
"4. c #FDE0BC",
"5. c #FDE1BC",
"6. c #FCE3BD",
"7. c #FDE3BE",
"8. c #FDE4BF",
"9. c #F7D1C5",
"0. c #FED0C1",
"q. c #FED1C3",
"w. c #F9D1C5",
"e. c #F9D2C6",
"r. c #FED4C6",
"t. c #FED4C7",
"y. c #FED7C7",
"u. c #FBD5C9",
"i. c #FDD5C8",
"p. c #FED5C8",
"a. c #FED6C9",
"s. c #FCD6CA",
"d. c #FED9C9",
"f. c #FED9CC",
"g. c #FED9CD",
"h. c #FEDBCC",
"j. c #FEDACD",
"k. c #FEDACE",
"l. c #FEDACF",
"z. c #FFDBCF",
"x. c #FFDECF",
"c. c #FEDBD0",
"v. c #FFDCD0",
"b. c #FFDDD1",
"n. c #FFDFD0",
"m. c #FDE2C0",
"M. c #FDE3C1",
"N. c #FDE6C0",
"B. c #FDE7C0",
"V. c #FDE7C1",
"C. c #FDE4C2",
"Z. c #FDE8C1",
"A. c #FEE8C2",
"S. c #FFE9C2",
"D. c #FEE9C3",
"F. c #FFEAC3",
"G. c #FEE8C4",
"H. c #FFE8C5",
/* pixels */
"              g.g.g.        g.t._ Y         E Y E               ",
"              g.g.g.g.      g.t.^ E       Y Y E E               ",
"              g.g.g.g.g.g.g.g.p.^ Y E Y Y E Y E Y               ",
"              g.g.g.g.g.g.g.g.p.^ E Y E E Y E E E               ",
"              g.g.g.g.g.g.g.g.t.^ E E E E Y E E E               ",
"              g.g.g.z.g.g.g.g.p.^ Y E E E E E E E               ",
"              #.o.#.@.@.#.#.#...P G G G G G G H G               ",
"              Y Y E Y Y Y E E U m l l l l l l l l               ",
"              +.} E _ +.} Q _ } ! B c Y ^ V x U ^               ",
"              Z.<.Q ' B.7.^ _ 7.y.Z B q.g.L x %.c.              ",
"              B.7.*.-.B.M.=.=.M.d.X...p.g.o.[ t.g.              ",
"              B.B.B.B.B.B.B.B.B.h.g.g.g.g.g.g.g.g.              ",
"              B.B.M.B.B.M.B.G.G.z.z.z.z.g.g.g.g.g.              ",
"              B.B.B.B.B.7.F k j h d S s.g.g.g.g.g.              ",
"              B.B.B.B.B.>.y 3 2 ; @ q 9.g.g.g.g.g.              ",
"              B.M.B.M.8.>.u 3 6 , $ w w.g.g.g.g.g.              ",
"              B.B.B.B.B.>.u 3 6 , = e w.g.g.g.g.g.              ",
"              B.B.8.M.B.>.u 3 2 , $ w w.g.g.g.g.g.              ",
"              B.B.B.B.B.3.i 8 7 < : r w.g.g.g.g.g.              ",
"              B.8.M.B.8.7.K n b a p v p.g.g.g.g.g.              ",
"              B.B.B.B.M.7.] ^ E C M L t.g.g.g.g.g.              ",
"              B.B.B.B.8.B.7.<.1.%.%.q.g.g.g.g.g.g.              ",
"              B.B.8.B.B.B.Z.G.H.n.b.b.g.g.g.g.g.g.              ",
"              B.B.M.B.B.3.D f g s t A u.g.g.g.g.g.              ",
"              B.B.B.B.8.:.q @ % O . & 9.g.g.g.g.g.              ",
"              B.B.8.B.M.:.q $ % O X * 9.g.g.g.g.g.              ",
"              B.B.M.B.B.:.q = % O X * 9.g.g.g.g.g.              ",
"              B.B.B.M.B.:.q = $ O X * 9.g.g.g.g.g.              ",
"              B.B.M.B.M.>.q = % O X * 9.g.g.g.g.g.              ",
"              B.B.B.B.B.:.q = % O X * 9.g.g.g.g.g.              ",
"              B.B.M.B.B.:.q = $ O X * 9.g.g.g.g.g.              ",
"              B.B.B.B.B.:.q = % O X * 9.g.g.g.g.g.              "
};
