/* XPM */
static char *fish1692697014[] = {
/* columns rows colors chars-per-pixel */
"16 16 5 1 ",
"  c None",
". c #323232",
"X c #595757",
"o c #807B7A",
"O c #A69E9A",
/* pixels */
"                ",
"                ",
"                ",
"         ..     ",
"      .. .o.    ",
"     .OO..Oo.   ",
"     .OXXX...   ",
"    .OXXXo.     ",
"   .OoOXoo.     ",
"   .oooOXX.     ",
"   .o.ooX.      ",
"   .oooo.       ",
"    ....        ",
"                ",
"                ",
"                "
};
