/* XPM */
static char *flower1692703283[] = {
/* columns rows colors chars-per-pixel */
"16 16 5 1 ",
"  c None",
". c #673931",
"X c #B9451D",
"o c #61A53F",
"O c #D39741",
/* pixels */
"                ",
"                ",
"                ",
"      ....      ",
"     .XXXX.     ",
"     .XOOX.     ",
"     .XOOX.     ",
"     .XXXX.     ",
"      ....      ",
"        o       ",
"        o       ",
"        o       ",
"       o        ",
"                ",
"                ",
"                "
};
