/* XPM */
static char *tile0041692732781[] = {
/* columns rows colors chars-per-pixel */
"32 32 9 1 ",
"  c None",
". c #211F30",
"X c #CC3048",
"o c #A14744",
"O c #E44A4A",
"+ c #CF9E6E",
"@ c #F18B72",
"# c #E4C997",
"$ c white",
/* pixels */
"                                ",
"                                ",
"                                ",
"                                ",
"                                ",
"                                ",
"                                ",
"                                ",
"                                ",
"                                ",
"                                ",
"                                ",
"        ................        ",
"      ..OOOO@O@@O@@@@O@O..      ",
"     .@O$$$OOOOOOOOOOOOOO@.     ",
"    .@O$$$$$OOOOOOOOOOOOOO@.    ",
"    .@O$$$$$OOOOOOOOOO$$OO@.    ",
"   .@OO$$$$$OOOOOOOOO$$$$OO@.   ",
"   .@OOX$$$XOOO$$OOOO$$$$OO@.   ",
"   .OOOOXXXOOO$$$$OOOX$$XOOO.   ",
"   .XOOOOOOOOO$$$$OOOOXXOOOX.   ",
"    .XXOOOOOOOX$$XOOOOOOOXX.    ",
"    .XXXXXXXXXXXXXXXXXXXXXX.    ",
"     .XXXXXXXXXXXXXXXXXXXX.     ",
"      ....................      ",
"        .++++++++++++++.        ",
"        .+oooo#oooo###+.        ",
"        .+############+.        ",
"         .+##########+.         ",
"          .#.......##.          ",
"          .++.    .++.          ",
"           ..      ..           "
};
