/* XPM */
static char *mushroom_16px1692733231[] = {
/* columns rows colors chars-per-pixel */
"16 16 90 1 ",
"  c None",
". c #3D1F33",
"X c #3D2033",
"o c #4D303B",
"O c #57303A",
"+ c #58323C",
"@ c #6B263A",
"# c #554543",
"$ c #624143",
"% c #634344",
"& c #614F49",
"* c #7A4747",
"= c #7B4A4A",
"- c #64524A",
"; c #66544B",
": c #7E6252",
"> c #B32F44",
", c #B82D44",
"< c #B82E44",
"1 c #B92E44",
"2 c #B92F45",
"3 c #BB2F44",
"4 c #A53342",
"5 c #BB3045",
"6 c #B9364D",
"7 c #B9374E",
"8 c #8C4044",
"9 c #914547",
"0 c #91444A",
"q c #924949",
"w c #934D4C",
"e c #84534A",
"r c #85564D",
"t c #86574D",
"y c #875A4F",
"u c #8D4A52",
"i c #885D51",
"p c #945451",
"a c #B45650",
"s c #B45751",
"d c #8E6656",
"f c #816956",
"g c #8C7D69",
"h c #CF4E4C",
"j c #DE414B",
"k c #CF504E",
"l c #DD4D58",
"z c #CB5350",
"x c #E04146",
"c c #E14347",
"v c #E34647",
"b c #E04149",
"n c #E0454A",
"m c #E74F4D",
"M c #E8514E",
"N c #E8534F",
"B c #E34F53",
"V c #E55151",
"C c #E55353",
"Z c #E55354",
"A c #E85756",
"S c #E4575B",
"D c #E65B5A",
"F c #E65A5B",
"G c #E4767E",
"H c #99876E",
"J c #A68E70",
"K c #AF9574",
"L c #B6A07E",
"P c #CA9471",
"I c #CB9574",
"U c #D09D79",
"Y c #E87C80",
"T c #EA7D81",
"R c #D38784",
"E c #EC8181",
"W c #F08583",
"Q c #E7949E",
"! c #D6AA81",
"~ c #D9AF85",
"^ c #F3A1A1",
"/ c #E1C28E",
"( c #F8C0BF",
") c #F1BBC2",
"_ c #F6C2C2",
"` c #F6DCE1",
"' c #FBE1E1",
"] c #FBE5E6",
"[ c #FAE6E7",
"{ c white",
/* pixels */
"                ",
"                ",
"                ",
"                ",
"                ",
"                ",
"   +u09wqpq8O   ",
"  *R](AmmMMDz=  ",
"  a^{[DVZvE'Ws  ",
" okSQGZ__VG`Eho ",
"  4bjxB))Vjlj4  ",
"  @>53,67<55>@  ",
"   X$ttyeid%X   ",
"    :PU!I~/f    ",
"     JHggLK     ",
"     -#  -;     "
};
