/* XPM */
static char *tile0001692698106[] = {
/* columns rows colors chars-per-pixel */
"16 32 13 1 ",
"  c None",
". c #1B141E",
"X c #5A303F",
"o c #3E3F64",
"O c #974E49",
"+ c #E7825A",
"@ c #FFC95C",
"# c #5458C0",
"$ c #788DDE",
"% c #FFBF89",
"& c #CCC1BE",
"* c #A3CCFF",
"= c #FDF5F1",
/* pixels */
"                ",
"                ",
"                ",
"                ",
"                ",
"                ",
"                ",
"                ",
"       ...      ",
"     ...@...    ",
"     .@.@.@.    ",
"    ..@@@@@.    ",
"   .OOOOOOOO.   ",
"   .OOOOOOOO.   ",
"  .OOOOOOOOOO.  ",
"  .OOO..OO..O.  ",
"  .OO.&#++#&..  ",
" .OOOO=o%%o=XO. ",
" .OOOO%%%%%+XO. ",
" .OOOO+%%%+XXO. ",
" .OOOOX+++XXXO. ",
"  .OO#$$$@#XO.  ",
"   .#$$#$#$#.   ",
"   .$$#$$#$#.   ",
"   .$$##$###.   ",
"   .#==$$##*.   ",
"    .==####*.   ",
"     .o.....    ",
"     .o....     ",
"     .X..X.     ",
"    .OO..XX.    ",
"    ........    "
};
