/* XPM */
static char *rsz_minion1692268067[] = {
/* columns rows colors chars-per-pixel */
"50 50 147 2 ",
"   c None",
".  c #2F495E",
"X  c #354E5E",
"o  c #3A505C",
"O  c #2E4960",
"+  c #2E4D6F",
"@  c #334E64",
"#  c #314E6C",
"$  c #3D5564",
"%  c #35516B",
"&  c #3A5469",
"*  c #234774",
"=  c #2B4C70",
"-  c #3E657E",
";  c #47565B",
":  c #4E5E5F",
">  c #46585F",
",  c #55635E",
"<  c #5C6659",
"1  c #5F6959",
"2  c #5F6856",
"3  c #6E714F",
"4  c #7D7947",
"5  c #76754B",
"6  c #79774D",
"7  c #7D794A",
"8  c #7A7645",
"9  c #626A56",
"0  c #6B6F54",
"q  c #405766",
"w  c #455A64",
"e  c #4A5D62",
"r  c #435B68",
"t  c #4A5F6A",
"y  c #4E6166",
"u  c #516160",
"i  c #57686D",
"p  c #5D6E73",
"a  c #5E7076",
"s  c #607177",
"d  c #64757A",
"f  c #847D44",
"g  c #897F42",
"h  c #8F843F",
"j  c #9E8B37",
"k  c #98883A",
"l  c #AC942E",
"z  c #BB9B29",
"x  c #BA9C29",
"c  c #A28E35",
"v  c #BFA026",
"b  c #DDAF17",
"n  c #D4AA1B",
"m  c #D9AC19",
"M  c #D0A71E",
"N  c #DFB114",
"B  c #EDB90D",
"V  c #ECB70F",
"C  c #F3BB0C",
"Z  c #FBBF08",
"A  c #E6B413",
"S  c #EAB611",
"D  c #EFBF14",
"F  c #E7BC1F",
"G  c #F1BF13",
"H  c #C09F28",
"J  c #C3A223",
"K  c #C9A321",
"L  c #DEBB28",
"P  c #D5B834",
"I  c #E5BC21",
"U  c #FEC205",
"Y  c #FFCA00",
"T  c #FCC009",
"R  c #8E8340",
"E  c #BCB44C",
"W  c #AEB15B",
"Q  c #9AAC71",
"!  c #93AD77",
"~  c #C4B545",
"^  c #C0B549",
"/  c #307EB8",
"(  c #527281",
")  c #5C7A88",
"_  c #1873CF",
"`  c #1976D2",
"'  c #1979D6",
"]  c #65818E",
"[  c #768F9B",
"{  c #7B939F",
"}  c #6FA59E",
"|  c #7AA694",
" . c #549FBD",
".. c #5BA1B5",
"X. c #58A0B8",
"o. c #56A0BA",
"O. c #6AA4A5",
"+. c #67A3A8",
"@. c #1C81DE",
"#. c #2C82C4",
"$. c #3D9BD5",
"%. c #3499DD",
"&. c #1E89E5",
"*. c #1E8EEA",
"=. c #1D87E4",
"-. c #1F91EE",
";. c #0E92FF",
":. c #1D95F6",
">. c #1493FE",
",. c #1994FA",
"<. c #1E9AFC",
"1. c #208EE3",
"2. c #2490E6",
"3. c #2496EE",
"4. c #2997EA",
"5. c #3199E0",
"6. c #2196F2",
"7. c #2398F3",
"8. c #209AFB",
"9. c #4C9EC4",
"0. c #479DCA",
"q. c #509FC0",
"w. c #818F94",
"e. c #869398",
"r. c #8BAC84",
"t. c #8C9AA1",
"y. c #939FA3",
"u. c #94A0A4",
"i. c #95A8B2",
"p. c #A0B1BA",
"a. c #B4BDC1",
"s. c #BBC3C6",
"d. c #BDC5C8",
"f. c #C8CFD1",
"g. c #CED4D8",
"h. c #D4DADD",
"j. c #D7DDE0",
"k. c #DBE1E4",
"l. c #E2E6E9",
"z. c #E7EBED",
"x. c #E9ECEE",
"c. c #EBEEF0",
"v. c #EFF2F3",
"b. c #F2F4F6",
"n. c #F5F7F8",
"m. c #F6F8FA",
"M. c #F8FAFB",
/* pixels */
"                                  w e $ % q 9 j     j 9 q # q e w                                   ",
"                              w w w & < c m C Z Z U Z C m c < & w w w                               ",
"                          w w w & e z C Y U U U Z U U U U Y C z e $ w w w                           ",
"                        w w e     Y Y U Z Z Z Z U U T Z Z Z Z Y Y     e w w                         ",
"                        w e     U Z Z Z Z Y Y Z C B Z Y Y Z Z Z Z U     e w                         ",
"                              Z Z U Z U U K f 9 : e 9 f K U U Z U T Z                               ",
"                            Z U U T Y S 5 & O @ q q o O & 5 S Y T U U Z                             ",
"                            Z U Z U N , @ e e.s.h.h.s.e.w @ , b U Z U T                             ",
"                          T U U U C < @ p g.M.n.b.b.n.M.g.s @ 9 C U U Z T                           ",
"                          U T Z Y k @ i j.n.x.x.z.z.x.z.M.j.i @ k Y Z U U                           ",
"                          T Z U S u o a.M.x.x.v.n.n.v.x.z.M.a.@ y B T Z Z                           ",
"                        Z U U Y J @ s c.c.c.b.l.p.p.l.v.x.v.x.s @ J Y U U Z                         ",
"                        Y Z b K f @ w.n.x.c.c.{ ( ) { c.v.x.n.w.X 7 K b Z Y                         ",
"                        f 2 q # & o t.n.x.b.j.) ) ) ) h.v.z.M.t.o & # q < f                         ",
"                      w + # e 3 9 X w.n.x.c.c.[ ) ( [ x.x.x.M.w.X 9 5 e # # e                       ",
"                        g J S Y J @ s c.c.x.b.j.i.i.j.b.c.v.x.d @ x Y S K g                         ",
"                        Y Y U U S e o s.M.x.x.v.n.n.b.x.x.M.s.o e S U U Y Y                         ",
"                        Z Z T Z Y R @ p l.M.x.x.x.x.x.x.n.l.p @ R Y Z Z Z Z                         ",
"                        Z U U Z U B u @ d j.M.n.v.b.n.M.h.d @ , V U Z U Z Z                         ",
"                        U Z Z U T U m : @ e y.f.j.j.f.y.u @ e m Y Z U Z Z U                         ",
"                        T U Z Z U Z Y N 0 # . o t y $ . & 0 N U Z U Z T U T                         ",
"                        U Z U T T U Z U Z H 6 , w > , 5 z T U T U Z T U T U                         ",
"                        U U U Z U U Z Z Z U Y C A A C U Y T T U U Z T Z U T                         ",
"                        Z Z U U U Z U Y Y Z Z Z U U U Z Z U Y U U T U U U Z                         ",
"                        T T Z U Z U S f z Y Y Z T Z T Y Y z 7 A U Z U Z Z T                         ",
"                        U Y Z Z Z Y z * & 8 M Z Y Y Z n 7 & * z Y Z Z U U U                         ",
"                      6.9.r.D U Z Z U j q = & 9 f f 2 & + q k Z Z U U T ! 9.6.                      ",
"                    6.6.,.;.$.~ U U T U m f : % + = @ e f m Y Z Z Y E $.;.>.6.6.                    ",
"                    3.6.3.3.,.,.O.P U U Y U S z c c x S U Y Z U P O.,.,.3.6.6.3.                    ",
"                    %.:.7.:.-.6.>.:...W F U Y Y Y Y Y U Z F W ..:.>.6.3.6.6.:.%.                    ",
"                    } ;.3.7.6.3.3.:.>.>.4.q.| Q W W Q |  .4.>.>.6.3.6.6.6.3.;.O.                    ",
"                    F %.>.3.6.:.3.:.3.3.:.>.;.>.>.>.>.>.>.:.3.3.6.6.6.6.3.>.5.I                     ",
"                    U L $.>.3.:.6.6.6.-.6.6.7.7.7.6.7.7.8.7.-.6.6.6.6.6.>.$.L U                     ",
"                    U U D ..>.3.6.6.*.` ' @.&.2.3.*.2.1.' ' ` 1.6.6.6.>. .D U U                     ",
"                    T T U Z X.>.6.6.=.` ` ` _ ` ` ` ` _ _ ` ` &.6.3.,. .U U T C                     ",
"                    b U Z Y ! >.6.7.&.` ` ` ` ` ` ` ` ` ` ` _ *.6.6.>.! U Z Y n                     ",
"                    l Y Z U E >.6.6.3.' ` ` ` ` ` ` ` ` ` ` ' :.6.7.>.E Z Z Y c                     ",
"                    8 r.$.0.$.3.:.6.6.' ` ` ` ` ` ` ` ` ` _ ' 7.6.6.6.$.0.$.r.8                     ",
"                    > 1.>.>.,.3.6.6.6.*.` ` ` ` ` ` ` ` ` ` *.6.6.6.6.,.,.>.&.w                     ",
"                    ; / 8.3.3.:.6.6.6.6.=._ ` ` ' ` ` ` ` =.6.6.6.6.6.6.3.7./ >                     ",
"                    > - 6.6.6.6.6.6.6.6.6.&.' ` _ _ ` ' &.6.6.6.6.6.6.6.6.6.- >                     ",
"                    w ; 2.6.6.6.6.6.6.6.:.7.:.*.=.=.*.6.7.:.6.6.6.6.6.6.6.2.; w                     ",
"                    w w   <.6.6.6.6.6.6.6.6.6.6.7.7.6.6.6.6.6.6.6.6.6.6.<.  w w                     ",
"                    w w     <.<.6.6.6.6.6.6.6.6.6.:.:.6.6.6.6.6.6.6.<.<.    w w                     ",
"                    w w w w > #.6.6.6.6.6.6.6.6.6.6.6.6.6.6.6.6.:.6.#.> w w w w                     ",
"                    w w w w w ;     6.6.6.6.6.6.6.6.6.6.6.7.6.6.    ; w w w w w                     ",
"                      w w w w w     6.6.6.6.6.6.6.6.6.6.6.6.6.6.    w w w w w                       ",
"                      w w w w ;   6.6.8.6.6.8.6.7.6.6.6.6.6.6.6.6.  ; w w w w                       ",
"                        w w r   6.6.6.6.6.6.6.6.7.:.6.6.7.7.6.6.6.6.  r w w                         ",
"                                  6.6.6.6.6.6.6.7.7.6.6.6.:.6.6.6.                                  "
};
