/* XPM */
static char *rsz_candy1692361484[] = {
/* columns rows colors chars-per-pixel */
"50 50 180 2 ",
"   c None",
".  c #6C1F2E",
"X  c #6C1F2F",
"o  c #6B1E30",
"O  c #6B1E31",
"+  c #6A1D33",
"@  c #6B1E32",
"#  c #6A1D34",
"$  c #6A1D35",
"%  c #691C36",
"&  c #691C37",
"*  c #66193D",
"=  c #66193E",
"-  c #6E2129",
";  c #6D202B",
":  c #6E212A",
">  c #6D202C",
",  c #702325",
"<  c #5F124F",
"1  c #5F134F",
"2  c #5C0F56",
"3  c #5A0D5D",
"4  c #590C5E",
"5  c #590D5E",
"6  c #590C5F",
"7  c #5A0D5E",
"8  c #5F1250",
"9  c #5D1054",
"0  c #5D1055",
"q  c #5D1056",
"w  c #651841",
"e  c #621549",
"r  c #61144A",
"t  c #570A64",
"y  c #580B61",
"u  c #580B63",
"i  c #590C60",
"p  c #53066E",
"a  c #53066F",
"s  c #53076F",
"d  c #54076C",
"f  c #54076D",
"g  c #54076E",
"h  c #47007F",
"j  c #4F0279",
"k  c #4E017A",
"l  c #4E017B",
"z  c #4F027A",
"x  c #4E027B",
"c  c #49007E",
"v  c #49007F",
"b  c #4B007E",
"n  c #4A017E",
"m  c #4B017E",
"M  c #4A007F",
"N  c #4B007F",
"B  c #4D007D",
"V  c #4E017C",
"C  c #4E017D",
"Z  c #4F017D",
"A  c #4C007E",
"S  c #4D007E",
"D  c #4C017E",
"F  c #4D007F",
"G  c #4E017E",
"H  c #4E017F",
"J  c #520570",
"K  c #520571",
"L  c #520670",
"P  c #520572",
"I  c #510377",
"U  c #510474",
"Y  c #510476",
"T  c #57067B",
"R  c #50037D",
"E  c #51037D",
"W  c #57077C",
"Q  c #5A077B",
"!  c #5B077B",
"~  c #59087B",
"^  c #5B087B",
"/  c #5F0A79",
"(  c #5D097A",
")  c #5F0A7A",
"_  c #5F0B7A",
"`  c #5C0C7A",
"'  c #610D79",
"]  c #620E79",
"[  c #640D78",
"{  c #640E78",
"}  c #771774",
"|  c #7F1B71",
" . c #7F1B72",
".. c #7E1C71",
"X. c #7E1C72",
"o. c #821D71",
"O. c #831E71",
"+. c #851F70",
"@. c #841E71",
"#. c #861F70",
"$. c #90256D",
"%. c #91256D",
"&. c #91266D",
"*. c #92266D",
"=. c #95286C",
"-. c #96296C",
";. c #992A6B",
":. c #9A2A6B",
">. c #9B2B6B",
",. c #9C2B6B",
"<. c #9D2D6A",
"1. c #98296C",
"2. c #852070",
"3. c #862070",
"4. c #872070",
"5. c #AD3667",
"6. c #AF3666",
"7. c #A73268",
"8. c #B23865",
"9. c #B43965",
"0. c #B53A64",
"q. c #B73A64",
"w. c #B73B64",
"e. c #BA3C63",
"r. c #BA3D63",
"t. c #BD3E62",
"y. c #BE3F62",
"u. c #B93C64",
"i. c #C9455F",
"p. c #CA455F",
"a. c #CA465F",
"s. c #CB465F",
"d. c #CD475E",
"f. c #CC465F",
"g. c #CC475F",
"h. c #CD475F",
"j. c #CE475E",
"k. c #CE485E",
"l. c #CF485E",
"z. c #D1495D",
"x. c #D14A5D",
"c. c #D24A5D",
"v. c #D34A5D",
"b. c #D0485E",
"n. c #D0495E",
"m. c #D1495E",
"M. c #D44B5D",
"N. c #D54B5D",
"B. c #D54C5C",
"V. c #D54C5D",
"C. c #D74C5C",
"Z. c #C14061",
"A. c #C24161",
"S. c #C34161",
"D. c #C04062",
"F. c #C64360",
"G. c #C74460",
"H. c #C84460",
"J. c #C84560",
"K. c #C94560",
"L. c #420081",
"P. c #450080",
"I. c #450180",
"U. c #440081",
"Y. c #450081",
"T. c #460080",
"R. c #470080",
"E. c #4B0082",
"W. c #4B0083",
"Q. c #4C0080",
"!. c #4D0080",
"~. c #4C0180",
"^. c #4C0081",
"/. c #4C0181",
"(. c #4C0082",
"). c #4B0084",
"_. c #4A0085",
"`. c #4B0085",
"'. c #4C0084",
"]. c #4C0184",
/* pixels */
"                                                                    Z                               ",
"                                                                  Z Z Q.                            ",
"                                                                  Z l Z                             ",
"                                                                v l r s `.                          ",
"                                                                Q.p o = J Q.Q.v                     ",
"                                                                `.5 > o & < t Z                     ",
"                                                                `.3 ; o o > & l Z                   ",
"                                                                `.3 ; & o > X 3 Q.                  ",
"                                                                `.t > o = 8 & o J Q.                ",
"                                                                Q.p & o J Q.= > w J ^.v             ",
"                                                                R Z w < `.q > & > o 5 Z Z Z         ",
"                                                      v L.T.T.L.v ].q J Y & o > = & o o t `.        ",
"                                                  Z T._ @.;.;.4.{ T.I ^.5 , & 2 ^.q > ; 8 Q.Z       ",
"                                                Z v  .A.j.w.9.j.K.X.T.^.p 3 Y `.J = o o & p `.      ",
"                                              Z v &.N.7.W T.T.R >.z.3.L.^.Z J 8 o > & o O = d v ^.  ",
"                                            Z v &.C.-.T.W o.3.! W t.C.2.T.Y q w & ; ; ; . o r l Z Z ",
"                                          Z v $.z.:.T.' w.N.N.t.5.g.p.z.X.T.^.Z J u i 3 u p Z Z Z   ",
"                                        Z Z $.z.K.^ _ r.z.K.G.l.l.g.p.l.A.' v Z Q.`.`.`.`.Q.Z       ",
"                                      Z v &.N.K.j.9.r.z.K.l.K.K.p.p.g.K.B.2.L.                      ",
"                                    v Q.&.C.<.} A.z.K.p.p.p.K.j.g.p.g.G.C.-.T.                      ",
"                                  Z Z $.C.>.T.` A.l.p.g.p.g.p.g.g.p.g.K.C.-.T.                      ",
"                                Z v &.z.:.T._ r.l.p.p.p.g.p.g.p.p.g.p.p.z.o.L.                      ",
"                              v v &.z.F.' _ r.l.K.p.p.g.p.g.p.g.g.p.p.l.t._ Q.                      ",
"                            Z Z &.l.p.j.5.r.l.K.g.p.g.p.g.p.g.p.p.p.p.l.X.T.                        ",
"                          Z v &.l.g.p.g.z.l.p.p.p.g.g.p.p.p.g.p.p.p.z.&.Q.Z                         ",
"                        Z Q.&.z.g.p.g.p.p.p.g.g.g.p.g.K.l.z.p.g.p.l.&.Z Z                           ",
"                        T.X.l.p.i.g.p.g.p.g.g.p.p.p.p.l.r.5.g.p.l.&.v Z                             ",
"                      v _ t.l.p.g.p.g.p.g.p.p.g.g.p.l.r._ ` i.l.&.Z v                               ",
"                      L.2.l.i.g.p.g.p.g.p.g.p.p.p.j.r._ h ;.C.&.Z v                                 ",
"                      T.=.B.G.g.g.p.g.p.g.p.g.p.j.D.` T.>.C.&.v ^.                                  ",
"                      h -.B.G.g.p.g.p.g.p.g.p.p.z.D.} <.C.$.v Z                                     ",
"                      L.3.z.G.p.g.i.i.p.g.p.l.t.9.p.l.z.&.v Z                                       ",
"      ^.Q.`.`.`.`.Q.Z v ' A.l.p.p.z.l.K.K.l.r._ ^ K.z.&.v Z                                         ",
"  Z Z l p y 3 i t p Z `.T.X.z.p.p.6.t.N.N.w.' T.:.N.&.v Z                                           ",
"Z v l r & ; ; ; > & w q j T.3.C.t.Q ` @.o.W T.:.C.&.v Z                                             ",
"  Z Z d = o o o o o < J Z Z L.2.N.;.R T.T.W 7.z.&.v Z                                               ",
"      `.J & o X = p `.Y 5 s ^.T. .G.j.w.w.l.A.X.v Z                                                 ",
"      Z Q.< ; . 9 Q.2 & , 5 ^.Y T.{ 3.:.:.o._ T.Z                                                   ",
"        `.t & . & = o X & Y J q `.v L.T.T.L.Q.                                                      ",
"        Z v l 3 o ; o X 9 `.1 w Z Z                                                                 ",
"            ^.^.J = > = Q.s o & p Q.                                                                ",
"                `.J o & q = o ; t `.                                                                ",
"                  Q.i > X o o ; 3 `.                                                                ",
"                  Z l & > o o ; 3 `.                                                                ",
"                    Z t < & o > i `.                                                                ",
"                    Q.Q.Q.J = o p Q.                                                                ",
"                          `.s r l Q.                                                                ",
"                            Z l Z                                                                   ",
"                            Z Z Q.                                                                  ",
"                              Z                                                                     "
};
