/* XPM */
static char *simple_bush1692696203[] = {
/* columns rows colors chars-per-pixel */
"32 32 8 1 ",
"  c None",
". c #193926",
"X c #2D603D",
"o c #357137",
"O c #4D843B",
"+ c #68963D",
"@ c #87AB3E",
"# c #97BA3A",
/* pixels */
"              .                 ",
"         .   .O.  .             ",
"        .O...OOO..O...          ",
"         .OO@@O+OOOo++.         ",
"       ..+OO@@@+O@O+++..        ",
"      .OOO+++@++@@OO+OOO.       ",
"     .ooOO@++###@@+@@@@O+.      ",
"    .OOO++@@@@###+@@@@++O..     ",
"   .OO+++++@@@+#####@++@@OO.    ",
"    .OOO+++##########+@@@@..    ",
"    .+OO@@####@@##@@+++@OOOO.   ",
"   .+++@@@@@+###@+#@@@+++OO.    ",
"  .+++OO+++@@###@###++++++o.    ",
"   .XOO+++@@+##@@@##O+@@OO+o.   ",
"  .X.O+++O@++@#+@@+@@OO@@OO.    ",
"   .OoooOO++@@@+@++@@@O++oOO.   ",
"    .Xo+O+++@@@++@O+@@OO++o.    ",
"   .Xo++O+++@@+++@@++@+OOoo.    ",
"    .o+oo++O@O++OO@o+++oOXoo.   ",
"     .ooo+oO+OO+O+ooOo+ooOXo.   ",
"    .o.XooO+++OO+++oOOoooXX.    ",
"     .XXooo++oOO+++oOOoo.X.     ",
"     .XoXXo+ooOoo+oooOXo.X.     ",
"      ..XXoooXooo+XooXX. .      ",
"        .XXXoXXooXXo.X.         ",
"         .X.XX.oXXX. .          ",
"          . .X..X..             ",
"             .  .               ",
"                                ",
"                                ",
"                                ",
"                                "
};
