/* XPM */
static char *ezgif_com_resize1692628339[] = {
/* columns rows colors chars-per-pixel */
"50 50 52 1 ",
"  c #4A4744",
". c #4C4946",
"X c #4E4B48",
"o c #514E4B",
"O c #4F5E44",
"+ c #54514E",
"@ c #545D4C",
"# c #565451",
"$ c #595654",
"% c #575B51",
"& c #5B5956",
"* c #5E5D5A",
"= c #605E5D",
"- c #536B43",
"; c #55634A",
": c #576F48",
"> c #586F48",
", c #5D7D46",
"< c #59714A",
"1 c #5C7948",
"2 c #576051",
"3 c #5C6255",
"4 c #5C6C52",
"5 c #5E6559",
"6 c #62615F",
"7 c #616858",
"8 c #646362",
"9 c #686666",
"0 c #6D6B6D",
"q c #706C6F",
"w c #6F6D70",
"e c #726E72",
"r c #747175",
"t c #777479",
"y c #7A767C",
"u c #7C787F",
"i c #5E8346",
"p c #618547",
"a c #628648",
"s c #668B49",
"d c #6A8E4B",
"f c #6E924D",
"g c #71964E",
"h c #74994F",
"j c #779C50",
"k c #799F50",
"l c #7AA051",
"z c #80A753",
"x c #80A853",
"c c #7E7981",
"v c #827D85",
"b c #857F88",
/* pixels */
"*8tt98888886$ o*880tr8888886=o.+=880y068868666  &=",
"&0vbvcvcvvyw9+*yvcvbvvvccvct08#8cvvvbvvcvvvcr9&$q6",
"X$9ybbbbvvby8#9ybvttvbbbvbvbr*&0cbvtyvbbbvvbc0#0br",
".&$#9ee9998*#.&#886809ee9996&X+&*98*800t0999=$#ybt",
"*00o..$****8w008**#+++%*****00006**++o$%=*=*$$9vb9",
"5rc*$88ecccburuvccw$o80rcccvvttcvcy9+$90tuuy8#qbc6",
"8cb9*r00vbbvcucbbvr8$0ccvbbbvcucbbc0**rvvbbc9#rbv6",
"8vv8*cc6eycr000009&%O200tyyyww00006#@O500008=#0bv8",
"8vb8*cc9;;34<<<-<--,da1::>@5>>>>>>--asa>>;=tt&9vv6",
"8cbw*tcw<sisffffffffffffddaadfffdffffgffsOqbc&9bv6",
"6vbe&0c0<ffffffffffffffffjgfffffffffhlgfp3ubc=9bu6",
"8vb0#9t5affffffffffggffffklhgffffffgkhgfs4ebb8$ue6",
"0vv0o$&Osffffffffffhkgfffffjffffffffhffff>quu0+89%",
"yby9#o*@affffffffffgjjffffssffffffffffffd>qut0o++.",
"wve*+9w&-ffffffffffffgffffffdffffffffffff>0uy0&86o",
"8vv9&yc=-ffffffffffffffffffsidfffffffffff>0bb8$yt*",
"6vb9*cb0>ffffffffffffffffffffffffgfffffff:0bc=8bc8",
"6cv&=vb0>dfffffffffffffffffdadfffffffffff>9vc*9vv8",
"#9w$0ccw>fffgffffffffffffffdaffffffffffff-$e0#6tv9",
".o$oeec0:fffdffffffffffffgfffffffffffffff1%9$+6tvy",
"o6&o0tc0>ffsidffffgfgffffkkffffffffffdfffsO&++0ubr",
"6wr&0vve>dfddfffffdjjffffhjkgfffffffsadffa208+0bv8",
"8tb6*vby5affffjgfffhkjdgffssffffffffddfff19c0%ebc8",
"8cb9*cbc@agfjjlhffffghgdfffffffffffffffjf<0ce*ebv8",
"8cb8*cby>dffgjffggfffffffffffffffjfffjgxg:rbc*9bc8",
"8cb9*cvt>fffdadfjhfffffffffffffffkhfffhff:ybc*9vv8",
"8vbe*rc0>dffgfffgfffffffffffffffffffffsdd3ubc*8bc8",
"8cbe$0c01fffffffffffffdfffffffffffddffffs7ybc*8vt8",
"8vv9+80@agfffffffffffaaffffffffffdpdffffd>evv0&r06",
"rbc0+o$Odfffffffffffffffffffgjhfdgdfffffg>qut0o*8X",
"ybt6+&8%,fffffffffffffffffffjkhfgddgffffd>0ur0+&+ ",
"0cy6#0r&;ffffffffffffffggfffgfffgdgdgffff>0vc0$w8#",
"6cb9&cv9-dffffffffgffffljfffgdfffffffffff>0bb=&vc8",
"8vv8*vbw>dfffffffffffffgffffdgfffffffffff>0bc*9bc8",
"5yu#8vv0>dgffffffffffisffffffffffffffffff;=cu&8vv8",
".*9&0ucw>gdffffffffffsfffffffffffffffffff-&09+*tvw",
".##.wrc0>ffffffffffffffhjfffffffffffgffffa@*++8yby",
"$98+0cc0>fffhhffffffffhlkffffhggfffffffffsO&$o0vvw",
"8wy*9vve4dffjkffffffffhfffffgkjdfffffffffa5r9#0bc8",
"=yb8*vbu*pfgkhffffffffsdffffjjgffffffffgf<0v0&rbc8",
"6vb9*ubu;affgffffdfffdaaffffffffdffddgdps:0ut*0bv8",
"8vv9*cv0;:<asa-->>>>>>3%:<-1as,->>>>>>>3;;690*9vc8",
"8vv9=uu98005O@%=0000wwyytr00;O%&9000qqruyr006&9vv8",
"6vbr*006tvcr&*wcbbvycvbbbvcc0&9rvbvcucvbbbbv0&9by8",
"6vbq$=*8yt09$o9ycvvryvvcccr08+#0ccvuruvcuucr9&=ce8",
"9vb9#$$***&#+##&*=0000*****#+o++*=80qq8====&%$$00*",
"tbu6#*9990r008*98*$+o&6999er006698#$X#=6880eq9=&*.",
"tbq%0vbvbbbbvyrvbc0&*rvbvvbbbctuvvu9#6ybbbbbbvuq$.",
"8t$$0rcccvcvvbvvvc8#80tccccvvbvcvvt=o9eyvvcvcvbvt&",
"*&X.*68888880tw886+.X88888888rt088*o.$=8888888tt8*"
};
