/* XPM */
static char *ezgif_com_gif_maker1692628203[] = {
/* columns rows colors chars-per-pixel */
"96 96 7 1 ",
"  c #595652",
". c #696A6A",
"X c #43403E",
"o c #847E87",
"O c #4D733E",
"+ c #6E924D",
"@ c #87B055",
/* pixels */
"    ....                XX  X       ....                XX  X       ....                XX  X   ",
" ...oooo................ XXX .......oooo................ XXX .......oooo................ XXX .. ",
" ..ooooooooooooooooo..... X ..oooooooooooooooooooooo..... X ..oooooooooooooooooooooo..... X ... ",
"X ..oooooooooooooooooo...  ..ooooooooooooooooooooooooo...  ..ooooooooooooooooooooooooo...  ..o. ",
" X ..oooooooooooooooooo..  ..ooooooo.oooooooooooooooooo..  ..ooooooo.oooooooooooooooooo..  .ooo.",
" XX   .ooooooooooooooo.. X ...ooooo....ooooooooooooooo.. X ...ooooo....ooooooooooooooo.. X oooo.",
"XX   XX...oooo.......   XXX    ..... .....oooo.......   XXX    ..... .....oooo.......   XX.oooo.",
"X ... X              X       XX       ..             X       XX       ..             X   .ooooo.",
" ..... XXXXX          .......      X    X             .......      X    X                .oooo. ",
" ...o. X     ........oooooooooo....  XXX    .........oooooooooo....  XXX    ..........   .oooo. ",
" ..ooo X .. ...oooooooooo..oooooooo.. X  ....oooooooooooo..oooooooo.. X  ....ooooooo..   ooooo. ",
" ..ooo.  ... .ooooooooo......ooooooo..  ..oo..ooooooooo......ooooooo..  ..oo..oooooo..   ooooo. ",
" .oooo.  ..o. .oooooooooooooooooooo...  ..ooooooooooooooooooooooooo...  ..ooooooooooo.   ooooo. ",
" .oooo.  .ooo. .oooooooooooooooooo.... X ..ooooooooooooooooooooooo.... X ..oooooooo..    ooooo. ",
" .oooo.  .ooo. .ooooo.............    XOX .....oooooo.............    XOX .........      .oooo. ",
" .oooo.  .ooo..    ....           XXXOO+OOO        ....           XXXOO+OOO        ...   .oooo. ",
" .oooo.  .ooo.. OOX   OOOOOOOOOOOOOOO++++++OOOOOOOX   OOOOOOOOOOOOOOO++++++OOOOO  .ooo.  .oooo. ",
" .oooo.  .oooo. O+OOOO++++++++++++++++++++++++++++OOOO+++++++++++++++++++++++++O .oooo.  .oooo. ",
" .ooooo  .o.oo. O+++++++++++++++++++++++++++++++++++++++++++++++++++++++++++++OX .oooo.  .oooo. ",
" .ooooo  ...oo. O+++++++++++++++++++++++++++++++++++++++++++++++++++++++@+++++O .ooooo.  .oooo. ",
" .ooooo   .ooo. O++++++++++++++++++++++++++++++++@++++++++++++++++++++@+@+++++O .ooooo.  .ooo.. ",
" .ooooo   .oo..O+++++++++++++++++++++++++++++++++@@+++++++++++++++++++@+@+++++O ..ooooo X ooo.. ",
" .oooo.   .... O++++++++++++++++++++++@++++++++++@@++@++++++++++++++++@++++++++O..ooooo.  .o... ",
" .oooo. X  .. XO++++++++++++++++++++++@+++++++++++@O@@++++++++++++++++@++++++++O .oo.oo.  ..... ",
".ooooo.. X   XO+++++++++++++++++++++++@+@+++++++++O@@O+++++++++++++++++++++++++O .oo.oo. X ... X",
".oooo... XX   XO++++++++++++++++++++++@+@++++++++++OO++++++++++++++++++++++++++O .oo..o. XX   XX",
".oooo..  X ... O++++++++++++++++++++++++@++++++++++++++++++++++++++++++++++++++O .oo..o. X   XX ",
".ooo..    .... XO++++++++++++++++++++++++++++++++++++++++++++++++++++++++++++++O .oo.oo.  ... X ",
" .ooo.. X .o.. XO+++++++++++++++++++++++++++++++++++++O++++++++++++++++++++++++O .oo.oo.  .... X",
" .oooo.  .ooo. XO++++++++++++++++++++++++++++++++++++O+O+++++++++++++++++++++++O .ooooo X .oo.. ",
" .oooo.  .oooo. O+++++++++++++++++++++++++++++++++++++O++++++++++++++++++++++++O .ooooo X oooo. ",
" .oooo.  .oooo. O++++++++++++++++++++++++++++++++++++++++++++++++++++++++++++++O .oooo.  .oooo. ",
" .oooo.  .oooo. O++++++++++++++++++++++++++++++++++++++++++++++++++++++++++++++O .oooo.  .oooo. ",
" .oooo X ooooo. O+++++++++++++++++++++++++++++++++++++O++++++++++++++++++++++++O .oooo.  .oooo. ",
" ..oo. X ooooo. O++++++++++++++++++++++++++++++++++++O+O+++++++++++++++++++++++OX .ooo.  .oooo. ",
"X ....  .oo.oo. O+++++++++++++++++++++++++++++++++++++O++++++++++++++++++++++++OX ..o. X ..ooo. ",
" X ...  .oo.oo. O++++++++++++++++++++++++++++++++++++++++++++++++++++++++++++++OX ....    ..ooo.",
" XX   X .o..oo. O+++++++++++++++++++++++++++++++++++++++++++++++++++++++++++++++O ... X  ..oooo.",
"XX   XX .o..oo. O++++++O+++++++++++++++++++++++++@++++++++++++++++++++++++++++++OX   XX ...oooo.",
"X ... X .oo.oo. O+++++O+O++++++++++++++++++++++++@@++++++++++++++++++++++++++++++OX   X ..ooooo.",
" .....  .oo.oo. O++++++O++++++++++++++@++++++++++@@++@+++++++++++++++++O++++++++OX ..  X .oooo. ",
" ...o.  .ooooo..O+++++++++++++++++++++@+++++++++++@O@@++++++++++++++++O+O+++++++O ....   .oooo. ",
" ..ooo X ooooo.. O++++++++++++++++++++@+@+++++++++O@@O+++++++++++++++++O++++++++O..oo.   ooooo. ",
" ..ooo.  .ooooo. O++++++++++@+++++++++@+@++++++++++OO++++++++++++++++++++++++++O .ooo.   ooooo. ",
" .oooo.  .ooooo. O+++++++++@@+++++++++++@++++++++++++++++++++++++++++++++++++++O .oo...  ooooo. ",
" .oooo.  .ooooo XO++++++@++@@+++++++++++++++++++++++++++++++++++++++++++++++@++O .oo.o.  ooooo. ",
" .oooo.  .ooooo O+++++++@@O@+++++++++++++++++++++++++++++++++++++++++++++++@@++O .oooo.  .oooo. ",
" .oooo.  .ooooo O+++++++O@@O++++@+++++++++++++++++++++++++++++++@+++++++@++@@++O ooooo.  .oooo. ",
" .oooo.  .ooooo O++++++++OO++++@+@+++++++++++++++++++++++++++++@+@++++++@@O@+++O ooooo.  .oooo. ",
" .oooo.  .oooo. O+++++++++++++++@+++++++++++++++++++++++++++++++@+++++++O@@O+++O ooooo.  .oooo. ",
" .ooooo  .o.oo. O++++++++++++++++++++++++++++++++++++++++++++++++++++++++OO++++X ooooo.  .oooo. ",
" .ooooo  ...oo. O++++++++++++++++++++++++++++++++++++++++++++++++++++++++++++++ .ooooo.  .oooo. ",
" .ooooo   .ooo. O++++++++++++++++++++++++++++++++++++++++++++++++++++++++++++++ .ooooo.  .ooo.. ",
" .ooooo   .oo..O++++++++++++++++++++++++++O+++++++++++++++++++++++O+++++++++++O ..ooooo X ooo.. ",
" .oooo.   .... O+++++++++++++++++++++++++O+O+++++++++++++++++++++O+O+++++++++++O..ooooo.  .o... ",
" .oooo. X  .. XO++++++++++++++++++++++++++O+++++++++++++++++++++++O++++++++++++O .oo.oo.  ..... ",
".ooooo.. X   XO++++++++++++++++++++++++++++++++++++++++++@+++++++++++++++++++++O .oo.oo. X ... X",
".oooo... XX   XO+++++++++++++++++++++++++++++++++++++++@+@+++++++++++++++++++++O .oo..o. XX   XX",
".oooo..  X ... O+++++++++++++++++++++++++++++++++++++++@+@+++++++++++++++++++++O .oo..o. X   XX ",
".ooo..    .... XO++++++++++++++++++++++++++++++++++++++@+++++++++++++++++++++++O .oo.oo.  ... X ",
" .ooo.. X .o.. XO++++++++++++++++++++++++++++++++++++++++++++++++++++++++++++++O .oo.oo.  .... X",
" .oooo.  .ooo. XO++++++++++++++++++++++++++++@+++++++++++++++++++++++++++++++++O .ooooo X .oo.. ",
" .oooo.  .oooo. O+++++++++++++++++++++++++++@+@++++++++++++++++++++++++++++++++O .ooooo X oooo. ",
" .oooo.  .oooo. O++++++++++++++++++++++++++++@+++++++++++++++++++++++++++++++++O .oooo.  .oooo. ",
" .oooo.  .oooo. O++++++++++++++++++++++++++++++++++++++++++++++++++++++++++++++O .oooo.  .oooo. ",
" .oooo X ooooo. O++++++++++++++++++++++++O+++++++++++++++++++++++++++++++++++++O .oooo.  .oooo. ",
" ..oo. X ooooo. O+++++++++++++++++++++++O+O++++++++++++++++++++++++++++++++++++OX .ooo.  .oooo. ",
"X ....  .oo.oo. O++++++++++++++++++++++++O+++++++++++++++++++++++++++++++++++++OX ..o. X ..ooo. ",
" X ...  .oo.oo. O++++++++++++++++++++++++++++++++++++++++++++++++++++++++++++++OX ....    ..ooo.",
" XX   X .o..oo. O+++++++++++++++++++++++++++++++++++++++++++++++++++++++++++++++O ... X  ..oooo.",
"XX   XX .o..oo. O+++++++++++++++++++++++++++++@+++++++++++++++++++++++++++++++++OX   XX ...oooo.",
"X ... X .oo.oo. O++++++++++++++++++++++++++++@@++++++++++++++++++++++++++++++++++OX   X ..ooooo.",
" .....  .oo.oo. O++++++++@++++++++++++++++@++@@++++++++++@++++++++++++++++++++++OX ..  X .oooo. ",
" ...o.  .ooooo..O++++++++@++++++++++++++++@@O@+++++++++++@++++++++++++++++++++++O ....   .oooo. ",
" ..ooo X ooooo.. O+++++@+@++++++++++++++++O@@O+++++++++@+@++++++++++++++++++++++O..oo.   ooooo. ",
" ..ooo.  .ooooo. O+++++@+@+++++++++++++++++OO++++++++++@+@+++++++++++++++++++++O .ooo.   ooooo. ",
" .oooo.  .ooooo. O+++++@+++++++++++++++++++++++++++++++@+++++++++++++++++++++++O .oo...  ooooo. ",
" .oooo.  .ooooo XO+++++++++++++++++++++++++++++++++++++++++++++++++++++++++++++O .oo.o.  ooooo. ",
" .oooo.  .ooooo O+++++++++++++++++++++++++OOOO++++++++++++++++++++++++++++OOOO+O ..ooo.  .oooo. ",
" .oooo.  .oooo. OOOOO++++++OOOOOOOOOOOOOOO   XOOOOOOO++++++OOOOOOOOOOOOOOO   XOO ......  .oooo. ",
" .oooo.  .ooo..      OOO+OOXXX           ....        OOO+OOXXX           ....        ..  .oooo. ",
" .oooo.  .oooo. ...... XOX    .............oooooo..... XOX    .............ooooo.....    .oooo. ",
" .ooooo  .o.o.. .oooo.. X ....ooooooooooooooooooooooo.. X ....oooooooooooooooooooooo..   .oooo. ",
" .ooooo  ..... .oooooo..  ...ooooooooooooooooooooooooo..  ...oooooooooooooooooooooooo..  .oooo. ",
" .ooooo   ...  .oo..oo..  ..ooooooo......ooooooooo..oo..  ..ooooooo......oooooooooooo..  .ooo.. ",
" .ooooo   .   .oooo....  X ..oooooooo..oooooooooooo....  X ..oooooooo..oooooooooooo.... X ooo.. ",
" .oooo.      .......    XXX  ....oooooooooo.........    XXX  ....oooooooooo.........   .  .o... ",
" .oooo. X.             X    X      .......             X    X      .......             X  ..... ",
".ooooo..  X             ..       XX       X             ..       XX       X             .X ... X",
".oooo..X   .......oooo..... .....    XXX   .......oooo..... .....    XXX   .......oooo....X   XX",
".oooo.X ..ooooooooooooooo....ooooo... X ..ooooooooooooooo....ooooo... X ..ooooooooooooooo..  XX ",
".ooo.  ..oooooooooooooooooo.ooooooo..  ..oooooooooooooooooo.ooooooo..  ..oooooooooooooooooo.. X ",
" .oo.  ...ooooooooooooooooooooooooo..  ...ooooooooooooooooooooooooo..  ...ooooooooooooooooooo. X",
" .o. X .....oooooooooooooooooooooo.. X .....oooooooooooooooooooooo.. X .....oooooooooooooooooo. ",
" .. XXX ................oooo....... XXX ................oooo....... XXX ................oooo... ",
"   X  XX                ....       X  XX                ....       X  XX                ....    "
};
