/* XPM */
static char *tree1692803016[] = {
/* columns rows colors chars-per-pixel */
"24 32 92 1 ",
"  c None",
". c #1D7E26",
"X c #1D752E",
"o c #1E7B29",
"O c #1A6C36",
"+ c #1A673D",
"@ c #19693A",
"# c #1B7132",
"$ c #207F24",
"% c #256B37",
"& c #246A39",
"* c #715C31",
"= c #546232",
"- c #566935",
"; c #756334",
": c #7A6536",
"> c #766A37",
", c #7A6A37",
"< c #7C6B39",
"1 c #67703E",
"2 c #68703C",
"3 c #6A7B3C",
"4 c #737137",
"5 c #75753F",
"6 c #7F713A",
"7 c #1B6840",
"8 c #836E3C",
"9 c #85733D",
"0 c #89723E",
"q c #8C7540",
"w c #8E7A43",
"e c #937B44",
"r c #997D46",
"t c #1D871D",
"y c #1E891E",
"u c #22871E",
"i c #21891D",
"p c #1E8522",
"a c #1D8A22",
"s c #1E8B2E",
"d c #218521",
"f c #228B24",
"g c #238D2A",
"h c #22932C",
"j c #269531",
"k c #289C3D",
"l c #26A03D",
"z c #29A13D",
"x c #4E8134",
"c c #3ECE3E",
"v c #3DD03B",
"b c #45D42E",
"n c #40CF3B",
"m c #44D333",
"M c #47D930",
"N c #48DB36",
"B c #42D139",
"V c #4CE435",
"C c #4EEC37",
"Z c #4CE439",
"A c #4FEB3C",
"S c #50EF39",
"D c #51F23A",
"F c #55FB3C",
"G c #27A545",
"H c #2BA443",
"J c #29AA46",
"K c #29A749",
"L c #27AB4B",
"P c #2AAA4C",
"I c #2BAD51",
"U c #2BB353",
"Y c #2CB75A",
"T c #2CBD5D",
"R c #32BD5E",
"E c #2EBE63",
"W c #31BE62",
"Q c #3ACC45",
"! c #34C74F",
"~ c #36C94B",
"^ c #38CA49",
"/ c #2DC15E",
"( c #35C753",
") c #32C05C",
"_ c #2BC161",
"` c #54F940",
"' c #9A8147",
"] c #9B8248",
"[ c #A1874A",
"{ c #A78A4E",
"} c #AA8C4F",
"| c #AC8D50",
/* pixels */
"        mmmMbmbmm       ",
"      mbbDVDDCCSMmb     ",
"     vBmMCSFFFDFSmmm    ",
"    UcbbZFF`FFFFSVmm    ",
"   K_~nmSSFFSSFSSmmnv/  ",
"  dK_^BmDFFSNFFDZmbm!_  ",
" $kR)!Qb^DFFDmVDbmbQQ_H ",
"pdIY_!QQmQVmNmmmmmmn_RUu",
"O.kE__BnQnncmvm^QvQB_TJy",
"$.sKP_)mv^Q(c!QR^/(__Uyp",
"O.ygYY_TnWQWQWEEYR_UYHi.",
" .uLE//E_W_/U_EE/_HUUgpo",
" OdKk/P_EYWWU/EUUURhkpdO",
" @odfYUHR_GzaRiUfJjdpoo ",
"  OXuphgKffadIayidpp.p+ ",
"   Opd.dfpyyi.ydpatOOOO ",
"   Oood$dtid.pppp@o@O   ",
"    @OdX$yt..uO$$7@O7   ",
"      #&x#o@pX@O52@     ",
"       q<=4&3e2-        ",
"          *w|q>         ",
"          e0re          ",
"          [|}9          ",
"          q}0]          ",
"          *}:9          ",
"          0'<e          ",
"         <;'8e          ",
"         w:}0}          ",
"      00qqw|:0{         ",
"       9<6w{;089        ",
"          ww9           ",
"           <w           "
};
